<svg width="555" height="167" viewBox="0 0 555 167" fill="none" xmlns="http://www.w3.org/2000/svg">
<path d="M262 150.8C259.2 144.8 249 138.6 226.4 138.4C194.8 138 160 140.8 116.8 145.8C103.4 147.4 86.4 148.6 73.6 149.2C73.6 149.2 35.4 152.2 23.2 136.6C10.6 120.6 22.8 74.2 80.6 37.2C137 0.799994 143.6 21.6 143.6 23.8C143.6 23.8 146.4 36.2 123 68.2C118 75.2 112.8 81.2 107.6 86.4C95.2 86.4 82.2 86.8 69.6 87C64.6 87.2 62.6 85.6 62 84.6C61.6 84.2 61.2 84.2 61 84.6C60.2 86 59.2 88.6 59.8 91.6C60.8 95.4 64.6 97.4 70.2 97.2C80 96.8 88.8 96.4 96.8 96C80 109.6 65.2 114.8 59.2 114.2C51.6 113.6 51 108.6 51.2 105.8C51.2 105 50.4 104.6 49.8 105C46.8 107.8 45.8 111.8 45.6 114.4C45.4 123.8 53.4 127.2 53.4 127.2C72 135.8 95.6 116.4 114.6 95.4C122.4 95.2 129.2 95 134.6 95.2C134.2 98.2 134 101.4 134 104.8C133.6 117.6 136 129.2 145.6 129C145.6 129 149 129 150.8 125.2C151 124.8 150.8 124.6 150.4 124.6C143 125.4 144 112.6 147.4 96C150 96.4 151.6 97 152.6 97.8C152.8 98 153.2 97.8 153.4 97.6C155.2 94.8 153.8 90.8 148.8 89.6C149.6 86.4 150.2 83 151 79.8C155.2 64.4 160.8 45.4 167.4 22.6C169.4 15.4 167.2 9.6 161.2 9C157.8 8.59999 154.4 9.19999 152.6 9.6C152 9.6 151.6 10.4 151.6 11C152 12.4 152.4 15.4 151.2 21C151 21.6 151 22 150.8 22.4C150.2 10.2 133.8 9 133.8 9C88.4 6 49.6 45 49.6 45C33 61 24.2 74.8 17.8 87.8C0.4 123.4 16.8 141.8 16.8 141.8C36 166.4 102.6 155.8 198.6 152.8C229.6 152 242.8 152.8 250.8 155C257.2 156.8 259.8 159.2 260.6 160.6C261 161 261.6 161 261.8 160.6C262.8 158.6 264 154.8 262 150.8ZM137.4 77C137.4 77 136.4 81.2 135.4 87.4C131.2 87 126.8 86.8 122.2 86.6C125.8 82.4 129 78.2 132 74.4C136.4 68.6 139.8 62.6 142.4 57C140.6 63.8 139 70.4 137.4 77ZM229.769 94.8C228.169 94.6 226.769 98 226.769 98C214.369 126.6 209.369 124 209.369 124C205.169 121.8 206.369 107.8 209.569 94.6C212.769 80.6 220.769 55.8 226.969 32.8C228.769 26.2 226.569 21.4 220.769 20.6C216.569 20.2 212.969 20.8 211.369 21.2C210.969 21.4 210.569 21.8 210.769 22.2C211.169 23.2 211.569 25.8 210.369 31.4C208.769 40 206.969 48.6 204.969 56.6C203.169 56 201.769 55.8 201.769 55.8C179.769 54.6 165.369 93.8 165.369 93.8C153.769 127.8 173.369 129 173.369 129C183.169 129.8 191.369 112.2 195.169 102.6C193.569 118 195.769 128.2 203.769 130C203.769 130 213.969 132.2 220.769 121.4C224.369 116 228.169 110 231.569 99C231.569 99 232.769 95 229.769 94.8ZM176.369 119.8C169.569 113.8 192.769 60.8 200.369 62C204.569 62.6 199.969 76.8 199.969 76.8C195.769 88.4 182.169 124.8 176.369 119.8ZM276.087 53.8C272.888 53 268.488 53.8 264.688 57.8C250.488 74.2 240.888 94.6 235.888 106.4C238.288 90.4 242.488 71.2 242.688 69.6C243.288 66.8 245.488 57.2 237.887 56.2C233.888 55.8 230.688 56.6 228.488 57.8C225.488 59.4 227.088 63.6 227.088 63.6C230.688 74.6 223.487 108.6 221.687 119.2C219.087 132.8 231.088 130.2 234.288 128.8C234.688 128.6 234.888 128.4 234.888 128C246.688 83.2 271.088 59.8 276.087 54.8C276.688 54.4 276.488 53.8 276.087 53.8ZM312.448 94.8C310.648 94.6 309.248 98 309.248 98C307.848 101.6 306.248 104.8 305.048 107.4C305.048 107.4 296.248 126.4 281.448 124C270.448 122.2 275.448 99.8 276.648 94.2C291.848 88.6 298.048 72.2 298.048 72.2C304.648 56.4 294.248 55.8 294.248 55.8C273.248 55 262.648 88 261.448 93.8C261.448 93.8 252.048 125 277.448 129.4C300.648 133.4 310.248 109.6 310.248 109.6C311.648 106.6 313.048 103.2 314.248 99C314.248 99 315.448 95 312.448 94.8ZM293.448 62C295.848 62.2 295.448 64.8 294.448 67.6C294.048 69 293.448 70 292.848 71.4C292.848 71.4 287.448 82.2 278.648 87.6C282.848 74.6 289.848 61.8 293.448 62ZM361.086 66.2C361.086 66.2 365.086 55.8 357.686 52.4C350.486 49.2 344.686 56 344.686 56C334.686 67.2 325.286 85.4 319.686 97.6C322.486 83.8 328.886 70 329.286 68.6C330.086 66.4 332.886 58.4 325.486 56.6C321.486 55.4 318.286 56 316.086 56.8C314.086 57.6 315.086 59.6 315.086 59.6C319.486 67.8 307.886 103 305.886 112.8C304.086 120.4 308.486 121.8 312.486 121.6C317.486 121.2 318.886 116.2 318.886 116.2C323.686 99.2 334.886 81 343.286 68.8C339.886 77.8 337.286 86.6 335.686 94.6C330.886 114.8 334.086 127.6 343.286 130C343.286 130 352.886 133 360.486 121.4C363.886 116 367.886 110 371.286 99C371.286 99 372.486 95 369.486 94.8C367.686 94.6 366.286 98 366.286 98C353.886 126.6 348.886 124 348.886 124C344.486 122 344.886 108.8 349.686 94.6C353.286 83.8 357.886 74 361.086 66.2ZM395.136 35.8C395.336 34.8 395.736 33.6 395.936 32.6C397.736 26.2 395.536 21.2 389.736 20.6C385.536 20 381.736 20.8 380.136 21.2C379.736 21.2 379.536 21.6 379.736 22C379.936 23 380.536 25.6 379.336 31.2C379.136 32.6 378.736 34.2 378.536 35.6C370.336 35.2 361.536 34.6 359.336 33C358.936 32.8 358.536 32.8 358.336 33.2C356.936 35.4 353.736 42.4 365.936 42.6C368.536 42.6 372.536 42.4 376.936 42.2C372.336 63.2 367.136 84.2 365.736 94C362.336 114.2 363.736 127.8 373.136 130C373.136 130 383.336 132.2 390.136 121.4C393.736 116 397.536 110 400.936 99C400.936 99 402.136 95 399.136 94.8C397.536 94.6 396.136 98 396.136 98C383.736 126.6 378.736 124 378.736 124C374.536 121.8 375.736 107.8 378.936 94.6C381.736 82.2 387.336 64.4 393.536 41.6C402.736 41.2 410.936 41.2 413.336 42.2C413.736 42.4 414.136 42 414.136 41.8C414.336 40 413.336 35.8 395.136 35.8ZM459.623 94.8C457.823 94.6 456.423 98 456.423 98C444.023 126.6 439.023 124 439.023 124C435.023 121.8 436.023 108 439.223 94.6C442.023 83.6 445.823 70 447.223 65.2C448.223 62.4 447.023 59.6 444.623 58.2C442.223 56.8 439.623 56 436.223 55.8C435.623 55.8 434.823 56.4 434.623 57C434.423 57.6 434.223 58.2 434.023 58.8C429.823 68.6 411.023 112.4 404.423 114C401.023 115.4 414.023 76.2 416.023 68.8C416.623 66.4 418.223 57 410.823 55.8C406.623 55 403.623 56 401.623 56.8C399.223 57.8 400.623 60 400.623 60C403.423 68 394.823 98 394.023 103.4C394.023 103.4 389.823 120.4 398.823 120.8C407.823 121 417.823 107.6 425.823 92.6C425.623 93.4 425.623 94 425.423 94.6C422.223 114.6 424.223 127.6 433.423 130C433.423 130 443.023 133 450.623 121.4C454.023 116 457.823 110 461.423 99C461.423 99 462.623 95 459.623 94.8ZM503.175 70.4C503.175 70.4 506.775 59.8 499.375 56.6C491.975 53.2 486.375 60 486.375 60C476.775 71.2 469.775 87.6 464.775 101.6C467.975 87.4 473.775 70 473.975 68.6C474.775 66.4 477.375 58.4 469.975 56.6C465.775 55.4 462.575 56 460.575 56.8C458.375 57.6 459.575 59.6 459.575 59.6C464.175 67.8 451.975 110.2 450.175 119.8C448.775 127.6 453.175 128.8 457.175 128.6C462.175 128.4 463.375 123.2 463.375 123.2C470.375 103.6 477.975 81.4 493.175 64.8C493.175 64.8 493.775 74 487.175 78.6C486.175 79.2 486.575 80.4 487.575 80.6C492.175 81.2 500.175 80.8 503.175 70.4ZM551.706 94.8C549.906 94.6 548.506 98 548.506 98C547.106 101.6 545.506 104.8 544.306 107.4C544.306 107.4 535.506 126.4 520.706 124C509.706 122.2 514.706 99.8 515.906 94.2C531.106 88.6 537.306 72.2 537.306 72.2C543.906 56.4 533.506 55.8 533.506 55.8C512.506 55 501.906 88 500.706 93.8C500.706 93.8 491.306 125 516.706 129.4C539.906 133.4 549.506 109.6 549.506 109.6C550.906 106.6 552.306 103.2 553.506 99C553.506 99 554.706 95 551.706 94.8ZM532.706 62C535.106 62.2 534.706 64.8 533.706 67.6C533.306 69 532.706 70 532.106 71.4C532.106 71.4 526.706 82.2 517.906 87.6C522.106 74.6 529.106 61.8 532.706 62Z" fill="white"/>
</svg>
