<svg width="285" height="285" viewBox="0 0 285 285" fill="none" xmlns="http://www.w3.org/2000/svg">
<path d="M181.581 14.3684L179.376 21.0873C179.208 21.6019 179.166 22.0825 179.251 22.5291C179.325 22.9811 179.533 23.3789 179.875 23.7226C180.216 24.0662 180.688 24.337 181.292 24.5349C181.854 24.7196 182.381 24.7854 182.87 24.7322C183.352 24.6764 183.765 24.5313 184.109 24.2968C184.445 24.0597 184.672 23.7602 184.791 23.3984L187.023 24.1306C186.87 24.597 186.597 25.0198 186.206 25.399C185.814 25.7783 185.332 26.0789 184.76 26.3011C184.178 26.5287 183.534 26.6468 182.827 26.6554C182.11 26.6695 181.357 26.5473 180.569 26.2887C179.62 25.9773 178.837 25.5421 178.218 24.9829C177.592 24.4211 177.181 23.7472 176.984 22.9613C176.777 22.1808 176.833 21.304 177.153 20.3309L179.148 14.2514C179.29 13.8171 179.406 13.3429 179.494 12.8286C179.575 12.3116 179.597 11.8512 179.56 11.4472L179.623 11.2542L181.951 12.0181C181.98 12.3124 181.956 12.6832 181.88 13.1305C181.802 13.5859 181.702 13.9985 181.581 14.3684ZM179.331 19.9232L179.821 18.3472L182.077 19.0873C182.712 19.2958 183.296 19.4295 183.829 19.4886C184.359 19.5557 184.826 19.5441 185.23 19.4539C185.634 19.3637 185.974 19.1948 186.252 18.9473C186.526 18.7078 186.729 18.387 186.861 17.9849C186.996 17.5748 187.026 17.1705 186.952 16.7721C186.878 16.3736 186.689 16.0132 186.385 15.6908C186.07 15.3738 185.639 15.1255 185.093 14.9461C184.409 14.7218 183.758 14.6687 183.141 14.7866C182.523 14.9046 181.993 15.1226 181.55 15.4405C181.099 15.7557 180.797 16.1064 180.644 16.4926L180.043 15.1063C180.21 14.787 180.485 14.4632 180.869 14.1349C181.253 13.8066 181.716 13.522 182.258 13.2813C182.79 13.0459 183.382 12.8973 184.035 12.8353C184.677 12.7788 185.352 12.8666 186.059 13.0988C186.944 13.3891 187.663 13.8166 188.217 14.3814C188.763 14.9436 189.126 15.5749 189.306 16.2752C189.475 16.981 189.441 17.6958 189.204 18.4195C188.974 19.1192 188.636 19.6895 188.188 20.1305C187.738 20.5796 187.197 20.8966 186.567 21.0816C185.933 21.2746 185.224 21.3448 184.44 21.2923C183.655 21.2398 182.817 21.0671 181.924 20.7742L179.331 19.9232Z" fill="white"/>
<path d="M162.001 9.90783L160.827 16.8811C160.738 17.4153 160.768 17.8967 160.919 18.3255C161.06 18.7613 161.326 19.1234 161.715 19.412C162.104 19.7007 162.612 19.8976 163.237 20.0029C163.822 20.1012 164.352 20.0874 164.828 19.9615C165.296 19.8342 165.682 19.6289 165.987 19.3455C166.284 19.0607 166.464 18.7306 166.527 18.355L168.843 18.7446C168.762 19.2287 168.556 19.6876 168.225 20.1212C167.895 20.5548 167.464 20.9242 166.932 21.2295C166.39 21.5418 165.771 21.7551 165.073 21.8695C164.366 21.9909 163.604 21.9828 162.786 21.8451C161.801 21.6795 160.961 21.3665 160.266 20.9063C159.563 20.4446 159.055 19.84 158.743 19.0923C158.422 18.3516 158.346 17.4763 158.516 16.4664L159.577 10.1567C159.653 9.70596 159.696 9.21973 159.707 8.69798C159.709 8.17481 159.662 7.71627 159.565 7.32236L159.598 7.12205L162.015 7.52856C162.087 7.81529 162.119 8.18546 162.111 8.63904C162.102 9.10097 162.065 9.5239 162.001 9.90783ZM160.608 15.7371L160.857 14.1053L163.198 14.4992C163.857 14.6101 164.455 14.6549 164.991 14.6334C165.525 14.6203 165.985 14.5389 166.37 14.3893C166.756 14.2396 167.067 14.0216 167.304 13.7353C167.54 13.4574 167.693 13.1098 167.763 12.6925C167.835 12.2668 167.804 11.8626 167.671 11.4797C167.538 11.0969 167.297 10.7689 166.948 10.4956C166.59 10.2293 166.127 10.0484 165.559 9.95292C164.85 9.83357 164.198 9.87849 163.605 10.0877C163.012 10.2969 162.521 10.5918 162.131 10.9724C161.732 11.3517 161.486 11.7437 161.392 12.1484L160.59 10.8678C160.708 10.5271 160.932 10.1657 161.262 9.78356C161.592 9.40143 162.008 9.05074 162.508 8.73148C162.998 8.41916 163.561 8.18349 164.197 8.02445C164.823 7.87235 165.504 7.85809 166.238 7.98165C167.156 8.13611 167.932 8.45106 168.564 8.92649C169.188 9.40052 169.641 9.9703 169.924 10.6358C170.197 11.3083 170.271 12.0201 170.144 12.7713C170.022 13.4974 169.773 14.112 169.396 14.6151C169.019 15.1266 168.532 15.521 167.936 15.7983C167.338 16.0841 166.648 16.2597 165.865 16.3253C165.081 16.3909 164.226 16.3458 163.3 16.1899L160.608 15.7371Z" fill="white"/>
<path d="M141.973 8.43077L141.857 15.5011C141.849 16.0427 141.951 16.5142 142.164 16.9155C142.369 17.3251 142.686 17.6435 143.114 17.8706C143.542 18.0976 144.073 18.2163 144.708 18.2267C145.3 18.2363 145.822 18.1433 146.274 17.9475C146.718 17.7515 147.069 17.4906 147.328 17.1647C147.579 16.8387 147.707 16.4853 147.714 16.1045L150.062 16.1428C150.054 16.6336 149.919 17.1181 149.657 17.5963C149.396 18.0745 149.025 18.5044 148.544 18.886C148.055 19.2758 147.475 19.5796 146.803 19.7972C146.122 20.0231 145.367 20.1293 144.537 20.1157C143.539 20.0995 142.662 19.9159 141.905 19.5649C141.141 19.2139 140.548 18.6921 140.128 17.9996C139.699 17.3155 139.493 16.4614 139.509 15.4374L139.614 9.03986C139.621 8.58289 139.591 8.09568 139.523 7.57823C139.447 7.06065 139.332 6.61437 139.177 6.2394L139.18 6.0363L141.63 6.07624C141.744 6.34897 141.831 6.71014 141.892 7.15975C141.952 7.61783 141.979 8.0415 141.973 8.43077ZM141.469 14.4028L141.471 12.7523L143.844 12.791C144.513 12.8019 145.11 12.7566 145.637 12.6551C146.163 12.5621 146.606 12.4128 146.965 12.207C147.323 12.0012 147.599 11.7391 147.79 11.4205C147.981 11.1105 148.08 10.7439 148.087 10.3207C148.094 9.88916 148.003 9.49407 147.814 9.13547C147.626 8.77688 147.338 8.48863 146.953 8.27072C146.558 8.06114 146.073 7.95165 145.498 7.94227C144.778 7.93055 144.141 8.07252 143.586 8.3682C143.031 8.66388 142.589 9.02912 142.261 9.46392C141.923 9.89859 141.739 10.323 141.707 10.7373L140.722 9.59121C140.787 9.23675 140.954 8.84587 141.224 8.41856C141.493 7.99126 141.851 7.58232 142.298 7.19176C142.736 6.80953 143.257 6.49214 143.862 6.2396C144.459 5.99539 145.129 5.87935 145.874 5.89149C146.805 5.90667 147.618 6.10193 148.315 6.47726C149.003 6.85246 149.537 7.34788 149.916 7.96352C150.287 8.58748 150.466 9.28027 150.453 10.0419C150.441 10.7781 150.287 11.4232 149.99 11.977C149.693 12.5393 149.271 13.0022 148.723 13.3657C148.175 13.7377 147.519 14.0148 146.754 14.197C145.99 14.3792 145.137 14.4627 144.198 14.4473L141.469 14.4028Z" fill="white"/>
<path d="M121.95 9.97087L122.895 16.9787C122.967 17.5155 123.139 17.9663 123.41 18.3311C123.674 18.7054 124.035 18.9728 124.492 19.1332C124.949 19.2935 125.492 19.3313 126.122 19.2465C126.709 19.1673 127.211 18.997 127.628 18.7358C128.037 18.4756 128.346 18.165 128.553 17.804C128.752 17.4441 128.826 17.0754 128.775 16.6979L131.103 16.384C131.169 16.8705 131.108 17.3697 130.921 17.8818C130.734 18.3938 130.431 18.8744 130.013 19.3236C129.589 19.7823 129.06 20.1696 128.428 20.4854C127.789 20.8108 127.058 21.0289 126.236 21.1397C125.246 21.2732 124.351 21.2232 123.551 20.9895C122.743 20.7569 122.079 20.3298 121.559 19.7081C121.033 19.0959 120.701 18.2824 120.564 17.2675L119.709 10.9265C119.648 10.4735 119.545 9.99635 119.4 9.49489C119.247 8.99456 119.066 8.57061 118.857 8.22305L118.83 8.02175L121.258 7.69423C121.412 7.94679 121.552 8.29082 121.679 8.72631C121.808 9.17019 121.898 9.58504 121.95 9.97087ZM122.346 15.951L122.101 14.3188L124.453 14.0015C125.116 13.9121 125.7 13.7778 126.205 13.5986C126.712 13.4278 127.127 13.2138 127.451 12.9566C127.775 12.6994 128.008 12.399 128.149 12.0554C128.292 11.7202 128.335 11.3429 128.278 10.9235C128.221 10.4957 128.072 10.1187 127.831 9.79246C127.591 9.4662 127.263 9.22424 126.849 9.0666C126.428 8.91847 125.932 8.88287 125.362 8.9598C124.649 9.05596 124.04 9.29179 123.536 9.66728C123.031 10.0428 122.649 10.4701 122.389 10.9492C122.121 11.4295 122.002 11.8768 122.032 12.2912L120.887 11.3056C120.898 10.9454 121.005 10.5338 121.207 10.071C121.41 9.60816 121.702 9.15022 122.085 8.69717C122.461 8.25364 122.929 7.86171 123.49 7.52137C124.043 7.19055 124.688 6.97536 125.427 6.8758C126.349 6.75135 127.183 6.82251 127.928 7.08927C128.664 7.35717 129.266 7.76705 129.733 8.31891C130.193 8.8803 130.474 9.53843 130.576 10.2933C130.674 11.023 130.618 11.6839 130.408 12.276C130.199 12.8764 129.85 13.3973 129.363 13.8388C128.877 14.2887 128.27 14.6609 127.541 14.9557C126.812 15.2504 125.982 15.4606 125.051 15.5861L122.346 15.951Z" fill="white"/>
<path d="M102.383 14.4933L104.368 21.2804C104.52 21.8003 104.757 22.2203 105.08 22.5403C105.397 22.8709 105.794 23.0812 106.27 23.1713C106.746 23.2613 107.288 23.2173 107.898 23.0392C108.466 22.8729 108.937 22.6294 109.311 22.3085C109.676 21.9901 109.934 21.6368 110.086 21.2487C110.228 20.863 110.247 20.4874 110.14 20.1218L112.394 19.4628C112.532 19.9339 112.546 20.4366 112.438 20.9709C112.33 21.5052 112.103 22.0257 111.757 22.5324C111.406 23.0496 110.941 23.5116 110.364 23.9186C109.78 24.3361 109.09 24.6612 108.294 24.894C107.336 25.1742 106.443 25.2588 105.617 25.1476C104.783 25.0388 104.063 24.716 103.456 24.1791C102.843 23.6527 102.394 22.8981 102.106 21.9151L100.311 15.7738C100.182 15.3351 100.009 14.8787 99.7912 14.4046C99.5651 13.9328 99.3226 13.5407 99.0638 13.2284L99.0068 13.0335L101.359 12.3459C101.548 12.5726 101.739 12.8917 101.929 13.3032C102.123 13.7229 102.274 14.1196 102.383 14.4933ZM103.671 20.3465L103.184 18.7695L105.462 18.1033C106.104 17.9157 106.661 17.6954 107.134 17.4426C107.609 17.1978 107.988 16.924 108.27 16.6212C108.551 16.3184 108.737 15.9865 108.825 15.6255C108.916 15.2727 108.902 14.8932 108.783 14.487C108.662 14.0727 108.458 13.7223 108.172 13.4358C107.885 13.1492 107.525 12.959 107.092 12.8652C106.653 12.7818 106.158 12.8209 105.605 12.9824C104.915 13.1843 104.348 13.5087 103.906 13.9555C103.463 14.4023 103.149 14.8821 102.964 15.3948C102.771 15.9098 102.72 16.3699 102.812 16.7751L101.533 15.9721C101.49 15.6143 101.534 15.1914 101.664 14.7035C101.795 14.2155 102.016 13.7189 102.326 13.2136C102.632 12.7188 103.036 12.2612 103.539 11.8407C104.036 11.4307 104.642 11.1213 105.357 10.9122C106.251 10.651 107.086 10.5964 107.862 10.7486C108.63 10.9032 109.287 11.2183 109.831 11.6939C110.37 12.18 110.747 12.7886 110.96 13.5197C111.167 14.2265 111.211 14.8883 111.091 15.5052C110.974 16.1302 110.708 16.6975 110.293 17.2069C109.88 17.7245 109.335 18.1835 108.658 18.5841C107.982 18.9847 107.193 19.3169 106.291 19.5805L103.671 20.3465Z" fill="white"/>
<path d="M83.7151 21.8958L86.6939 28.3091C86.9221 28.8003 87.2198 29.18 87.5869 29.4481C87.9499 29.7274 88.3735 29.8759 88.8577 29.8937C89.3419 29.9114 89.8718 29.7866 90.4475 29.5192C90.9848 29.2696 91.4141 28.9582 91.7354 28.585C92.049 28.2154 92.2514 27.8275 92.3426 27.4211C92.4262 27.0184 92.3877 26.6443 92.2273 26.2989L94.3574 25.3095C94.5641 25.7547 94.654 26.2496 94.627 26.7941C94.5999 27.3385 94.4534 27.8872 94.1876 28.4399C93.9176 29.0039 93.5276 29.5303 93.0174 30.0193C92.5032 30.5194 91.87 30.9442 91.1177 31.2936C90.2119 31.7143 89.3423 31.9316 88.5089 31.9454C87.6678 31.9628 86.9071 31.7515 86.2268 31.3116C85.5424 30.8829 84.9846 30.2042 84.5532 29.2754L81.8578 23.4724C81.6653 23.0579 81.4257 22.6326 81.1392 22.1964C80.8449 21.7638 80.5464 21.4125 80.2437 21.1425L80.1582 20.9583L82.3803 19.9262C82.6019 20.1219 82.8379 20.4089 83.0882 20.7872C83.3422 21.1732 83.5511 21.5427 83.7151 21.8958ZM85.8656 27.49L85.1473 26.0039L87.3004 25.0038C87.9068 24.7222 88.4248 24.4209 88.8544 24.1001C89.2875 23.7869 89.6207 23.4595 89.8539 23.1179C90.0872 22.7762 90.2205 22.4204 90.2539 22.0502C90.2909 21.6878 90.2202 21.3147 90.0419 20.9309C89.8601 20.5394 89.606 20.2235 89.2798 19.9831C88.9535 19.7427 88.5692 19.6085 88.127 19.5807C87.6806 19.564 87.1965 19.6769 86.6745 19.9193C86.0221 20.2224 85.5106 20.6279 85.14 21.136C84.7694 21.6441 84.5309 22.1655 84.4247 22.7001C84.3107 23.2383 84.3295 23.7008 84.4812 24.0876L83.0956 23.4854C82.9996 23.138 82.9797 22.7133 83.0358 22.2113C83.0919 21.7093 83.2358 21.1853 83.4674 20.6391C83.6948 20.1042 84.0258 19.5912 84.4603 19.1001C84.8906 18.6202 85.4436 18.2234 86.119 17.9097C86.9634 17.5175 87.7808 17.3385 88.5712 17.3726C89.3539 17.4103 90.0502 17.6235 90.66 18.0122C91.2657 18.4121 91.729 18.9575 92.0498 19.6483C92.36 20.3161 92.5023 20.9639 92.4766 21.5918C92.4545 22.2273 92.2762 22.828 91.9418 23.3939C91.611 23.9675 91.1412 24.503 90.5324 25.0004C89.9235 25.4979 89.1931 25.9444 88.3411 26.3402L85.8656 27.49Z" fill="white"/>
<path d="M66.3668 32.0115L70.2727 37.9062C70.5719 38.3577 70.9231 38.6885 71.3263 38.8985C71.7271 39.1203 72.1681 39.2037 72.6495 39.1487C73.1309 39.0937 73.6361 38.8909 74.1652 38.5403C74.6591 38.2131 75.0369 37.8409 75.2986 37.4238C75.5533 37.0114 75.6953 36.5974 75.7246 36.182C75.7469 35.7713 75.6529 35.4072 75.4425 35.0897L77.4003 33.7924C77.6715 34.2016 77.8345 34.6774 77.8893 35.2198C77.9441 35.7622 77.8815 36.3266 77.7014 36.9129C77.519 37.511 77.2122 38.0899 76.7811 38.6497C76.3476 39.2213 75.7851 39.7361 75.0937 40.1943C74.2612 40.7459 73.4339 41.091 72.612 41.2296C71.7829 41.3728 70.9992 41.2779 70.2607 40.9448C69.5198 40.6235 68.8666 40.036 68.3009 39.1823L64.7666 33.8486C64.5141 33.4676 64.2136 33.083 63.8649 32.6947C63.5092 32.311 63.1615 32.0084 62.8217 31.7868L62.7095 31.6175L64.752 30.2641C65.0004 30.4244 65.2767 30.6728 65.5809 31.0094C65.8898 31.3529 66.1517 31.687 66.3668 32.0115ZM69.331 37.2204L68.3982 35.8587L70.3772 34.5474C70.9346 34.178 71.4016 33.8026 71.7782 33.421C72.1595 33.0465 72.4399 32.6729 72.6194 32.3002C72.7988 31.9274 72.8773 31.5556 72.8549 31.1847C72.8371 30.8208 72.7114 30.4624 72.4776 30.1097C72.2392 29.7499 71.9407 29.4756 71.5821 29.2868C71.2234 29.098 70.8234 29.0229 70.382 29.0616C69.9382 29.112 69.4764 29.2961 68.9967 29.614C68.397 30.0114 67.952 30.489 67.6617 31.0469C67.3714 31.6047 67.2138 32.1559 67.1888 32.7004C67.1567 33.2496 67.2447 33.7041 67.4526 34.0638L65.9924 33.676C65.8454 33.3469 65.7621 32.93 65.7424 32.4253C65.7227 31.9205 65.7864 31.3808 65.9335 30.8061C66.0783 30.2432 66.3287 29.6864 66.6847 29.1357C67.0383 28.5968 67.5255 28.1217 68.1464 27.7103C68.9225 27.196 69.7038 26.8966 70.4904 26.8119C71.27 26.7319 71.9903 26.8384 72.6515 27.1313C73.3102 27.436 73.85 27.9058 74.2707 28.5408C74.6774 29.1546 74.9151 29.7738 74.9838 30.3984C75.0572 31.03 74.9709 31.6507 74.7251 32.2603C74.4839 32.877 74.0996 33.4768 73.5722 34.0599C73.0447 34.6429 72.3894 35.1938 71.6063 35.7128L69.331 37.2204Z" fill="white"/>
<path d="M50.7293 44.612L55.4743 49.855C55.8377 50.2566 56.2345 50.531 56.6646 50.6783C57.0941 50.8376 57.5426 50.8539 58.0103 50.7274C58.478 50.601 58.9472 50.3248 59.4178 49.8988C59.8571 49.5013 60.1749 49.0767 60.3712 48.6251C60.5612 48.1792 60.6396 47.7487 60.6064 47.3336C60.5668 46.9241 60.4193 46.5782 60.1637 46.2958L61.9051 44.7199C62.2345 45.0838 62.4669 45.5298 62.6024 46.0579C62.7379 46.586 62.7605 47.1533 62.6703 47.76C62.5796 48.3787 62.363 48.9971 62.0206 49.6151C61.6776 50.2452 61.1986 50.8385 60.5836 51.395C59.8431 52.0652 59.0769 52.5303 58.285 52.7904C57.4868 53.0562 56.6976 53.0798 55.9176 52.8611C55.1369 52.6544 54.403 52.1714 53.7158 51.4121L49.4224 46.668C49.1157 46.3292 48.7609 45.9939 48.358 45.6622C47.9488 45.3362 47.5597 45.0891 47.1906 44.9209L47.0543 44.7703L48.871 43.1262C49.1405 43.2475 49.4509 43.4517 49.8021 43.7389C50.159 44.0323 50.4681 44.3234 50.7293 44.612ZM54.4404 49.3181L53.3142 48.1114L55.0744 46.5184C55.5701 46.0698 55.9756 45.6286 56.2908 45.1949C56.6118 44.7675 56.833 44.3561 56.9546 43.9607C57.0762 43.5653 57.0981 43.1859 57.0203 42.8225C56.9483 42.4654 56.7702 42.1299 56.4863 41.8162C56.1966 41.4961 55.8604 41.2696 55.4775 41.1367C55.0947 41.0038 54.6879 40.9895 54.2573 41.0938C53.8261 41.2101 53.3971 41.4614 52.9704 41.8476C52.437 42.3303 52.0686 42.8692 51.8651 43.4643C51.6617 44.0593 51.5884 44.6279 51.6452 45.17C51.6958 45.7178 51.8508 46.154 52.1103 46.4785L50.6085 46.3137C50.4139 46.0104 50.2691 45.6107 50.174 45.1146C50.0789 44.6185 50.061 44.0754 50.1204 43.4851C50.1792 42.9068 50.3433 42.3188 50.6128 41.721C50.8817 41.1352 51.2923 40.5925 51.8445 40.0927C52.5348 39.468 53.2624 39.0549 54.0275 38.8533C54.7862 38.6575 55.5144 38.6548 56.212 38.8454C56.9089 39.0479 57.513 39.4316 58.0241 39.9963C58.5182 40.5423 58.846 41.1189 59.0074 41.7262C59.1746 42.3397 59.1823 42.9662 59.0306 43.6058C58.8845 44.2517 58.5944 44.9023 58.1603 45.5578C57.7261 46.2132 57.1608 46.8562 56.4642 47.4865L54.4404 49.3181Z" fill="white"/>
<path d="M37.1563 59.4128L42.6331 63.8858C43.0527 64.2284 43.4861 64.4403 43.9334 64.5215C44.3819 64.6146 44.8278 64.5636 45.2713 64.3685C45.7148 64.1734 46.1373 63.83 46.5388 63.3384C46.9136 62.8795 47.1641 62.4121 47.2906 61.9362C47.4116 61.4668 47.4246 61.0294 47.3296 60.624C47.2292 60.2251 47.0315 59.9052 46.7365 59.6643L48.2221 57.8452C48.6023 58.1557 48.899 58.5619 49.112 59.0637C49.325 59.5655 49.4324 60.1231 49.4342 60.7365C49.4371 61.3617 49.3156 62.0056 49.0696 62.668C48.8249 63.3423 48.4402 64.0006 47.9155 64.643C47.2838 65.4166 46.5959 65.9912 45.8519 66.367C45.1025 66.7494 44.3258 66.8909 43.5218 66.7916C42.719 66.7042 41.921 66.3366 41.1279 65.6888L36.1721 61.6415C35.8182 61.3524 35.4171 61.074 34.9691 60.8065C34.5157 60.5454 34.0939 60.3594 33.7038 60.2484L33.5465 60.1199L35.0963 58.2222C35.381 58.3017 35.7185 58.4572 36.1088 58.6885C36.5056 58.9251 36.8548 59.1666 37.1563 59.4128ZM41.5306 63.5098L40.2362 62.4855L41.7379 60.6468C42.1609 60.129 42.4957 59.632 42.7424 59.156C42.9957 58.6853 43.1528 58.2454 43.2137 57.8363C43.2747 57.4271 43.2395 57.0487 43.1082 56.7011C42.9835 56.3588 42.7572 56.0538 42.4295 55.7861C42.0951 55.5131 41.7288 55.3395 41.3303 55.2654C40.9319 55.1913 40.5276 55.2381 40.1174 55.4058C39.7085 55.5854 39.322 55.8981 38.9579 56.3439C38.5029 56.9011 38.2193 57.4891 38.1073 58.1079C37.9953 58.7267 38.0081 59.2998 38.1455 59.8273C38.2776 60.3614 38.4962 60.7694 38.8013 61.0514L37.2918 61.1135C37.054 60.8427 36.8509 60.4692 36.6825 59.993C36.5142 59.5167 36.4151 58.9824 36.3854 58.3899C36.3569 57.8093 36.4311 57.2033 36.608 56.5719C36.7861 55.9525 37.1107 55.3543 37.5818 54.7774C38.1707 54.0564 38.8283 53.5389 39.5545 53.225C40.2754 52.9177 40.9949 52.806 41.7132 52.8899C42.4326 52.9858 43.0873 53.2746 43.6773 53.7564C44.2476 54.2222 44.6581 54.7432 44.9087 55.3194C45.1658 55.901 45.2673 56.5193 45.2131 57.1744C45.1655 57.8348 44.9761 58.5216 44.6451 59.2347C44.314 59.9478 43.8514 60.6682 43.2571 61.3958L41.5306 63.5098Z" fill="white"/>
<path d="M25.9538 76.0801L32.0389 79.6821C32.5051 79.958 32.9653 80.1026 33.4197 80.1159C33.8771 80.1407 34.3104 80.0235 34.7196 79.7641C35.1289 79.5048 35.4952 79.102 35.8185 78.5557C36.1203 78.0459 36.298 77.5463 36.3517 77.0568C36.4011 76.5746 36.3484 76.1402 36.1937 75.7535C36.0347 75.3742 35.7913 75.0875 35.4636 74.8935L36.6599 72.8724C37.0824 73.1225 37.4365 73.4796 37.7223 73.9438C38.0081 74.4081 38.1978 74.9433 38.2914 75.5495C38.388 76.1672 38.3643 76.822 38.2204 77.5138C38.0794 78.2171 37.7977 78.9257 37.3752 79.6395C36.8664 80.4989 36.2724 81.1701 35.5931 81.6532C34.9094 82.1435 34.1627 82.3998 33.3529 82.422C32.5461 82.4558 31.702 82.2119 30.8207 81.6903L25.3146 78.431C24.9213 78.1982 24.4831 77.9831 24.0001 77.7857C23.5127 77.5955 23.0678 77.4748 22.6654 77.4235L22.4906 77.32L23.7387 75.2115C24.0321 75.2475 24.3891 75.3506 24.8096 75.5209C25.2374 75.6954 25.6188 75.8818 25.9538 76.0801ZM30.8925 79.4756L29.4593 78.6567L30.6686 76.6138C31.0092 76.0384 31.2658 75.4969 31.4384 74.9893C31.6183 74.486 31.7077 74.0276 31.7067 73.6139C31.7057 73.2002 31.6142 72.8313 31.4323 72.5073C31.2577 72.1875 30.9883 71.9199 30.6241 71.7043C30.2527 71.4845 29.8644 71.3677 29.4594 71.3542C29.0543 71.3406 28.6616 71.4475 28.2812 71.6747C27.9038 71.9136 27.5685 72.2806 27.2753 72.7759C26.9089 73.395 26.7166 74.0188 26.6986 74.6474C26.6806 75.276 26.779 75.8408 26.9939 76.3417C27.2045 76.85 27.4818 77.2206 27.8257 77.4537L26.3425 77.7412C26.0668 77.5092 25.8101 77.1703 25.5723 76.7247C25.3345 76.279 25.1565 75.7655 25.0384 75.1842C24.9232 74.6144 24.9058 74.0042 24.9861 73.3534C25.0694 72.7143 25.3007 72.0742 25.6801 71.4333C26.1543 70.6321 26.727 70.022 27.398 69.6029C28.0647 69.191 28.7594 68.9728 29.4821 68.9482C30.2077 68.9351 30.8983 69.1226 31.5538 69.5106C32.1875 69.8857 32.6713 70.3393 33.0054 70.8715C33.3468 71.408 33.5398 72.0041 33.5844 72.6599C33.6362 73.3201 33.5519 74.0275 33.3314 74.7821C33.1109 75.5368 32.7614 76.3183 32.2828 77.1267L30.8925 79.4756Z" fill="white"/>
<path d="M17.3744 94.2376L23.9305 96.8873C24.4327 97.0903 24.9094 97.1643 25.3607 97.1093C25.8166 97.0654 26.2275 96.8846 26.5932 96.5668C26.959 96.2491 27.2608 95.796 27.4986 95.2075C27.7206 94.6582 27.8215 94.1375 27.8013 93.6455C27.7779 93.1614 27.6607 92.7398 27.4498 92.3807C27.2358 92.0294 26.9522 91.7824 26.5991 91.6397L27.4792 89.4622C27.9343 89.6462 28.3379 89.9462 28.69 90.3624C29.0422 90.7786 29.3099 91.2793 29.4933 91.8646C29.6813 92.461 29.756 93.1119 29.7173 93.8174C29.6833 94.534 29.5109 95.2767 29.2001 96.0457C28.8259 96.9717 28.3391 97.7243 27.7398 98.3037C27.1373 98.8909 26.4374 99.2561 25.6401 99.3995C24.8474 99.5538 23.9763 99.4391 23.0269 99.0553L17.0946 96.6577C16.6709 96.4865 16.2054 96.3394 15.6982 96.2166C15.1878 96.1016 14.7299 96.0489 14.3244 96.0584L14.136 95.9823L15.0542 93.7106C15.3497 93.7023 15.7181 93.7507 16.1593 93.856C16.6084 93.9645 17.0134 94.0917 17.3744 94.2376ZM22.766 96.8549L21.2263 96.26L22.1159 94.0589C22.3665 93.439 22.539 92.8652 22.6337 92.3375C22.7361 91.8129 22.7559 91.3462 22.6929 90.9373C22.6299 90.5285 22.4842 90.1775 22.2558 89.8843C22.0353 89.5944 21.7288 89.3701 21.3365 89.2115C20.9363 89.0498 20.5349 88.9925 20.1324 89.0398C19.7299 89.0871 19.3576 89.2516 19.0156 89.5332C18.6782 89.8259 18.4017 90.2391 18.186 90.7727C17.9164 91.4396 17.8198 92.0853 17.8962 92.7095C17.9725 93.3337 18.1544 93.8773 18.442 94.3404C18.7263 94.8114 19.056 95.1363 19.431 95.3153L18.0076 95.8217C17.7002 95.6336 17.3956 95.337 17.0937 94.9321C16.7919 94.5271 16.539 94.046 16.3351 93.4889C16.1359 92.9428 16.0272 92.3421 16.0091 91.6866C15.9957 91.0422 16.1286 90.3747 16.4077 89.6842C16.7565 88.8211 17.2313 88.132 17.8319 87.6171C18.4294 87.11 19.0835 86.7902 19.7944 86.6576C20.5099 86.536 21.2208 86.6179 21.927 86.9033C22.6097 87.1792 23.1561 87.5552 23.5662 88.0313C23.9841 88.5106 24.2642 89.0711 24.4065 89.7129C24.5566 90.3578 24.5792 91.0698 24.4743 91.849C24.3693 92.6282 24.1408 93.4532 23.7888 94.3242L22.766 96.8549Z" fill="white"/>
<path d="M11.6122 113.475L18.4913 115.113C19.0182 115.238 19.5006 115.24 19.9386 115.118C20.3828 115.007 20.7619 114.766 21.0759 114.397C21.39 114.028 21.6205 113.535 21.7675 112.918C21.9047 112.341 21.9265 111.811 21.8327 111.328C21.7371 110.853 21.5581 110.453 21.2958 110.13C21.0315 109.815 20.7141 109.613 20.3436 109.525L20.8876 107.24C21.3651 107.354 21.8091 107.59 22.2196 107.949C22.6301 108.307 22.9699 108.762 23.2388 109.314C23.5141 109.875 23.6854 110.507 23.7529 111.211C23.8266 111.924 23.7674 112.685 23.5753 113.491C23.3441 114.463 22.9755 115.28 22.4698 115.943C21.9621 116.614 21.3248 117.08 20.5579 117.341C19.7973 117.612 18.9189 117.629 17.9226 117.392L11.6982 115.91C11.2536 115.804 10.7713 115.729 10.2514 115.683C9.72959 115.646 9.26891 115.662 8.8694 115.733L8.6718 115.686L9.23925 113.302C9.53016 113.249 9.90164 113.242 10.3537 113.28C10.814 113.32 11.2335 113.385 11.6122 113.475ZM17.3351 115.255L15.7237 114.898L16.2735 112.588C16.4283 111.938 16.513 111.345 16.5275 110.809C16.5502 110.275 16.4998 109.81 16.3763 109.416C16.2528 109.021 16.0562 108.696 15.7864 108.44C15.5249 108.186 15.1883 108.01 14.7766 107.912C14.3567 107.812 13.9513 107.816 13.5604 107.923C13.1696 108.03 12.8261 108.249 12.5301 108.578C12.2404 108.918 12.0289 109.368 11.8956 109.928C11.729 110.628 11.7302 111.281 11.8992 111.886C12.0682 112.492 12.3295 113.002 12.6832 113.417C13.0349 113.84 13.4095 114.112 13.807 114.233L12.4756 114.947C12.1435 114.807 11.7979 114.559 11.4388 114.204C11.0796 113.849 10.7575 113.411 10.4725 112.891C10.1937 112.381 9.99628 111.803 9.88021 111.158C9.77042 110.523 9.80176 109.843 9.97425 109.118C10.1899 108.213 10.556 107.46 11.0728 106.861C11.5875 106.27 12.1864 105.856 12.8694 105.618C13.5586 105.391 14.2737 105.365 15.0147 105.542C15.7311 105.712 16.3276 106.002 16.8044 106.412C17.2894 106.823 17.6503 107.335 17.8871 107.948C18.1322 108.563 18.2612 109.264 18.2741 110.05C18.2871 110.836 18.1848 111.686 17.9672 112.6L17.3351 115.255Z" fill="white"/>
<path d="M8.79683 133.359L15.8436 133.948C16.3834 133.993 16.8606 133.922 17.2753 133.736C17.6978 133.559 18.0366 133.265 18.2918 132.853C18.5471 132.441 18.7011 131.919 18.7539 131.286C18.8033 130.696 18.7454 130.169 18.5803 129.705C18.4145 129.249 18.1777 128.881 17.8699 128.601C17.5614 128.329 17.2174 128.177 16.8379 128.145L17.0334 125.805C17.5225 125.846 17.9969 126.013 18.4566 126.306C18.9162 126.599 19.3202 126.998 19.6688 127.503C20.025 128.017 20.2892 128.616 20.4612 129.302C20.641 129.996 20.6964 130.756 20.6273 131.583C20.5442 132.578 20.3023 133.441 19.9015 134.172C19.5 134.912 18.9397 135.468 18.2206 135.841C17.5093 136.223 16.6433 136.372 15.6228 136.286L9.24653 135.754C8.79109 135.716 8.30295 135.713 7.78213 135.746C7.2606 135.787 6.80759 135.873 6.4231 136.002L6.22068 135.985L6.42464 133.543C6.7044 133.448 7.0706 133.385 7.52325 133.355C7.98433 133.325 8.40885 133.327 8.79683 133.359ZM14.7217 134.262L13.075 134.15L13.2726 131.784C13.3282 131.118 13.3231 130.519 13.2571 129.986C13.1996 129.455 13.0802 129.003 12.8989 128.632C12.7177 128.26 12.4745 127.968 12.1695 127.755C11.873 127.544 11.5138 127.42 11.0921 127.385C10.662 127.349 10.2617 127.413 9.89127 127.578C9.52083 127.742 9.21398 128.01 8.97071 128.38C8.73518 128.759 8.59346 129.236 8.54555 129.809C8.48567 130.526 8.58464 131.172 8.84248 131.745C9.10032 132.319 9.43514 132.784 9.84694 133.141C10.258 133.507 10.6692 133.72 11.0803 133.779L9.87088 134.685C9.52158 134.596 9.14278 134.403 8.73448 134.106C8.32617 133.808 7.94214 133.424 7.58237 132.952C7.23033 132.49 6.94859 131.948 6.73715 131.327C6.53344 130.716 6.46259 130.039 6.52458 129.297C6.60208 128.369 6.8514 127.57 7.27255 126.9C7.69299 126.239 8.22304 125.74 8.86271 125.403C9.51011 125.074 10.2133 124.942 10.9724 125.006C11.7062 125.067 12.3394 125.264 12.8721 125.597C13.4133 125.931 13.8468 126.384 14.1729 126.954C14.5073 127.526 14.7398 128.199 14.8704 128.975C15.001 129.75 15.0272 130.606 14.949 131.542L14.7217 134.262Z" fill="white"/>
<path d="M8.99236 153.441L16.0478 152.967C16.5882 152.931 17.0495 152.789 17.4317 152.543C17.8228 152.305 18.1137 151.963 18.3044 151.518C18.495 151.072 18.5691 150.533 18.5266 149.899C18.4869 149.308 18.3507 148.796 18.118 148.362C17.8858 147.936 17.5966 147.608 17.2502 147.377C16.9044 147.154 16.5415 147.055 16.1615 147.081L16.0042 144.737C16.494 144.705 16.9881 144.799 17.4864 145.02C17.9848 145.241 18.444 145.575 18.8642 146.021C19.2934 146.476 19.6444 147.029 19.9172 147.681C20.199 148.341 20.3677 149.085 20.4233 149.912C20.4902 150.909 20.3802 151.798 20.0935 152.581C19.8073 153.372 19.3367 154.006 18.6816 154.482C18.0355 154.967 17.2015 155.243 16.1798 155.312L9.79569 155.741C9.33969 155.771 8.85668 155.842 8.34666 155.952C7.83722 156.071 7.4021 156.224 7.04131 156.409L6.83864 156.423L6.67451 153.978C6.9368 153.842 7.28946 153.725 7.73248 153.627C8.18395 153.529 8.60391 153.467 8.99236 153.441ZM14.9856 153.445L13.3406 153.581L13.1816 151.213C13.1368 150.545 13.042 149.954 12.897 149.438C12.7606 148.921 12.5749 148.492 12.3399 148.152C12.105 147.811 11.8209 147.559 11.4875 147.395C11.1626 147.23 10.789 147.162 10.3668 147.19C9.9361 147.219 9.54995 147.342 9.20832 147.56C8.86669 147.778 8.60336 148.089 8.41832 148.491C8.2423 148.902 8.17357 149.394 8.21212 149.968C8.26031 150.686 8.45483 151.309 8.79569 151.838C9.13654 152.366 9.5373 152.776 9.99796 153.068C10.4592 153.368 10.8975 153.516 11.313 153.514L10.2529 154.59C9.89422 154.555 9.49078 154.421 9.04253 154.188C8.59429 153.955 8.15698 153.632 7.7306 153.22C7.31324 152.815 6.95354 152.322 6.65151 151.74C6.35848 151.166 6.18703 150.507 6.13714 149.764C6.07477 148.835 6.20162 148.008 6.51768 147.283C6.8343 146.566 7.28358 145.993 7.86551 145.564C8.45645 145.142 9.13192 144.906 9.89193 144.855C10.6266 144.806 11.2822 144.906 11.8589 145.156C12.4439 145.405 12.9404 145.787 13.3482 146.303C13.7645 146.818 14.0953 147.449 14.3405 148.196C14.5858 148.943 14.7399 149.785 14.8028 150.722L14.9856 153.445Z" fill="white"/>
<path d="M12.1937 173.266L19.0985 171.741C19.6275 171.624 20.0624 171.415 20.4033 171.115C20.7544 170.82 20.9908 170.439 21.1126 169.97C21.2343 169.501 21.2268 168.956 21.0898 168.337C20.962 167.758 20.7506 167.272 20.4555 166.878C20.1622 166.492 19.827 166.21 19.45 166.034C19.0747 165.865 18.7011 165.822 18.3292 165.904L17.8226 163.611C18.302 163.505 18.8045 163.524 19.3304 163.668C19.8562 163.812 20.3603 164.073 20.8427 164.452C21.3352 164.837 21.7651 165.331 22.1325 165.935C22.5099 166.545 22.7881 167.255 22.967 168.065C23.1824 169.04 23.207 169.936 23.0408 170.753C22.8763 171.578 22.5059 172.275 21.9296 172.845C21.3634 173.42 20.5803 173.819 19.5804 174.04L13.3325 175.42C12.8863 175.518 12.4193 175.661 11.9316 175.846C11.4457 176.04 11.0383 176.256 10.7094 176.493L10.511 176.537L9.98253 174.145C10.2214 173.97 10.5526 173.802 10.976 173.639C11.4076 173.474 11.8136 173.35 12.1937 173.266ZM18.1201 172.373L16.514 172.754L16.0019 170.436C15.8577 169.783 15.6753 169.212 15.4547 168.723C15.2423 168.233 14.9945 167.837 14.7112 167.535C14.4279 167.234 14.1092 167.027 13.755 166.915C13.409 166.8 13.0294 166.789 12.6162 166.88C12.1947 166.973 11.8314 167.153 11.5263 167.42C11.2212 167.687 11.0073 168.033 10.8847 168.459C10.7722 168.891 10.778 169.388 10.9021 169.95C11.0573 170.652 11.343 171.239 11.7592 171.711C12.1753 172.182 12.633 172.528 13.1321 172.747C13.6331 172.974 14.0887 173.055 14.4992 172.991L13.6122 174.214C13.2523 174.233 12.8334 174.161 12.3553 173.997C11.8772 173.834 11.3965 173.581 10.9131 173.237C10.4399 172.899 10.0103 172.466 9.62453 171.935C9.24881 171.412 8.98062 170.786 8.81996 170.059C8.61915 169.15 8.62066 168.313 8.82449 167.549C9.03016 166.793 9.38851 166.159 9.89957 165.647C10.4207 165.142 11.0532 164.807 11.797 164.643C12.516 164.484 13.1792 164.485 13.7867 164.645C14.4025 164.804 14.9506 165.108 15.4311 165.556C15.9198 166.003 16.3414 166.577 16.6958 167.279C17.0502 167.981 17.3287 168.79 17.5313 169.708L18.1201 172.373Z" fill="white"/>
<path d="M18.3292 192.388L24.9276 189.846C25.4331 189.651 25.8318 189.379 26.1239 189.031C26.4269 188.687 26.6035 188.275 26.6536 187.793C26.7037 187.311 26.6147 186.774 26.3865 186.181C26.1734 185.629 25.8915 185.179 25.5407 184.834C25.1929 184.496 24.8194 184.268 24.4201 184.15C24.0238 184.04 23.648 184.053 23.2926 184.19L22.4482 181.998C22.9062 181.822 23.406 181.765 23.9474 181.829C24.4889 181.892 25.0265 182.075 25.5602 182.378C26.1048 182.685 26.6039 183.109 27.0576 183.651C27.5222 184.197 27.9036 184.858 28.2018 185.632C28.5609 186.564 28.7194 187.446 28.6774 188.278C28.6384 189.119 28.3766 189.864 27.8921 190.513C27.4186 191.167 26.704 191.678 25.7484 192.046L19.7779 194.347C19.3514 194.511 18.911 194.722 18.4566 194.978C18.0053 195.243 17.6348 195.517 17.3451 195.801L17.1556 195.874L16.2746 193.588C16.4847 193.38 16.7869 193.164 17.1811 192.939C17.5832 192.712 17.9659 192.528 18.3292 192.388ZM24.0549 190.617L22.524 191.234L21.6704 189.019C21.43 188.395 21.1642 187.858 20.8728 187.408C20.5894 186.955 20.285 186.601 19.9598 186.345C19.6345 186.089 19.2884 185.932 18.9213 185.874C18.5622 185.813 18.1852 185.859 17.7903 186.011C17.3875 186.166 17.0553 186.398 16.7936 186.708C16.5319 187.017 16.3723 187.392 16.3148 187.831C16.2683 188.275 16.3485 188.766 16.5554 189.303C16.8141 189.974 17.1845 190.512 17.6666 190.916C18.1487 191.319 18.6529 191.592 19.1792 191.734C19.7086 191.884 20.1713 191.896 20.5674 191.771L19.8737 193.113C19.5207 193.185 19.0957 193.177 18.5985 193.087C18.1014 192.997 17.5882 192.819 17.0587 192.551C16.5403 192.288 16.0506 191.924 15.5897 191.457C15.1398 190.996 14.7809 190.418 14.5131 189.723C14.1784 188.854 14.0545 188.026 14.1415 187.24C14.2316 186.461 14.4909 185.781 14.9196 185.199C15.3591 184.621 15.9343 184.195 16.6451 183.922C17.3322 183.657 17.9881 183.558 18.6128 183.626C19.2454 183.691 19.8328 183.909 20.3751 184.28C20.9252 184.649 21.428 185.153 21.8836 185.794C22.3391 186.435 22.7357 187.194 23.0735 188.07L24.0549 190.617Z" fill="white"/>
<path d="M27.2599 210.375L33.403 206.873C33.8735 206.605 34.2271 206.276 34.4637 205.888C34.7118 205.503 34.8246 205.069 34.8019 204.585C34.7793 204.101 34.6108 203.583 34.2964 203.032C34.003 202.517 33.657 202.115 33.2583 201.826C32.8639 201.544 32.4604 201.375 32.0479 201.318C31.6396 201.268 31.27 201.337 30.9391 201.526L29.7759 199.486C30.2023 199.243 30.688 199.112 31.2328 199.093C31.7777 199.075 32.3366 199.175 32.9096 199.394C33.4941 199.616 34.0512 199.961 34.5808 200.429C35.1221 200.9 35.5981 201.495 36.0089 202.216C36.5035 203.084 36.7924 203.932 36.8756 204.761C36.9629 205.598 36.8157 206.374 36.434 207.088C36.0637 207.806 35.4338 208.418 34.5442 208.926L28.9856 212.095C28.5886 212.321 28.1847 212.595 27.7739 212.917C27.3673 213.246 27.0421 213.573 26.7982 213.897L26.6218 213.998L25.4082 211.869C25.5848 211.632 25.8512 211.373 26.2073 211.092C26.5709 210.807 26.9217 210.568 27.2599 210.375ZM32.6557 207.766L31.2345 208.606L30.0587 206.544C29.7275 205.963 29.3842 205.472 29.0288 205.07C28.6806 204.665 28.3266 204.36 27.9668 204.156C27.6069 203.952 27.2411 203.849 26.8695 203.846C26.5053 203.84 26.1393 203.941 25.7717 204.151C25.3967 204.364 25.103 204.644 24.8906 204.989C24.6782 205.334 24.5765 205.728 24.5856 206.171C24.6061 206.617 24.7589 207.091 25.044 207.591C25.4003 208.215 25.847 208.691 26.3842 209.018C26.9213 209.345 27.4607 209.54 28.0024 209.601C28.5482 209.67 29.0075 209.613 29.3803 209.429L28.8955 210.86C28.5574 210.985 28.1358 211.04 27.6309 211.026C27.126 211.012 26.5917 210.912 26.0282 210.727C25.4762 210.544 24.9374 210.257 24.4119 209.865C23.8979 209.476 23.4564 208.958 23.0875 208.311C22.6264 207.503 22.38 206.703 22.3482 205.912C22.3206 205.129 22.4751 204.418 22.8117 203.778C23.1598 203.141 23.6647 202.634 24.3264 202.256C24.9661 201.892 25.5998 201.696 26.2276 201.669C26.8628 201.639 27.4762 201.766 28.068 202.052C28.6672 202.334 29.2399 202.758 29.7863 203.323C30.3327 203.888 30.8385 204.579 31.3038 205.395L32.6557 207.766Z" fill="white"/>
<path d="M38.7846 226.821L44.3337 222.438C44.7587 222.102 45.0591 221.725 45.2349 221.306C45.4225 220.888 45.4689 220.441 45.374 219.966C45.2792 219.491 45.035 219.004 44.6416 218.506C44.2743 218.041 43.872 217.696 43.4346 217.47C43.0024 217.25 42.5781 217.143 42.1617 217.149C41.7505 217.161 41.3955 217.285 41.0966 217.521L39.6409 215.678C40.0261 215.373 40.4866 215.171 41.0226 215.072C41.5585 214.972 42.1262 214.987 42.7255 215.118C43.3366 215.25 43.9391 215.507 44.5329 215.89C45.1385 216.275 45.6984 216.793 46.2125 217.443C46.8315 218.227 47.2443 219.023 47.4508 219.83C47.6625 220.645 47.6332 221.434 47.3627 222.197C47.1042 222.962 46.5731 223.662 45.7695 224.297L40.7485 228.263C40.3898 228.546 40.0316 228.878 39.6736 229.258C39.321 229.644 39.0483 230.016 38.8558 230.373L38.6964 230.499L37.1777 228.576C37.3167 228.315 37.5413 228.019 37.8513 227.688C38.168 227.351 38.4791 227.063 38.7846 226.821ZM43.7287 223.434L42.4493 224.477L40.9778 222.614C40.5634 222.089 40.1504 221.655 39.7388 221.311C39.3338 220.962 38.9381 220.714 38.5518 220.566C38.1654 220.419 37.7883 220.371 37.4205 220.424C37.0594 220.472 36.7128 220.628 36.3807 220.89C36.042 221.157 35.7935 221.478 35.6352 221.851C35.4769 222.224 35.4354 222.629 35.5107 223.065C35.5978 223.504 35.8198 223.948 36.1765 224.4C36.6224 224.965 37.1354 225.368 37.7155 225.611C38.2956 225.854 38.858 225.965 39.4027 225.945C39.9527 225.931 40.3982 225.806 40.7394 225.568L40.4744 227.056C40.1588 227.23 39.7502 227.347 39.2489 227.409C38.7475 227.471 38.2044 227.452 37.6195 227.353C37.0464 227.256 36.4707 227.053 35.8923 226.744C35.3259 226.436 34.8118 225.99 34.3501 225.406C33.7731 224.675 33.4096 223.922 33.2598 223.145C33.1152 222.375 33.1613 221.648 33.3982 220.965C33.647 220.283 34.0702 219.706 34.668 219.234C35.2458 218.777 35.843 218.489 36.4598 218.368C37.0831 218.243 37.7088 218.277 38.3367 218.471C38.9714 218.66 39.6011 218.993 40.226 219.47C40.8509 219.947 41.4545 220.555 42.0368 221.292L43.7287 223.434Z" fill="white"/>
<path d="M52.6431 241.355L57.4728 236.191C57.8428 235.795 58.0833 235.377 58.1942 234.936C58.3172 234.495 58.2961 234.046 58.1312 233.591C57.9662 233.135 57.6519 232.691 57.1883 232.257C56.7555 231.852 56.306 231.571 55.8396 231.413C55.3794 231.261 54.9439 231.218 54.533 231.286C54.1282 231.36 53.7958 231.535 53.5357 231.814L51.8202 230.209C52.1555 229.851 52.5806 229.582 53.0956 229.403C53.6105 229.224 54.1741 229.154 54.7862 229.194C55.4102 229.233 56.0445 229.397 56.6889 229.687C57.3453 229.976 57.9764 230.404 58.5822 230.971C59.3117 231.653 59.839 232.378 60.1641 233.145C60.4954 233.919 60.5846 234.703 60.4317 235.498C60.2907 236.294 59.8704 237.065 59.171 237.813L54.8007 242.487C54.4886 242.82 54.184 243.202 53.887 243.631C53.5962 244.066 53.3824 244.474 53.2455 244.856L53.1067 245.005L51.3171 243.331C51.4155 243.052 51.5932 242.726 51.8501 242.352C52.1128 241.972 52.3771 241.64 52.6431 241.355ZM57.0239 237.265L55.9152 238.488L54.1812 236.867C53.6928 236.41 53.2194 236.043 52.761 235.765C52.3083 235.48 51.8799 235.294 51.4758 235.206C51.0716 235.118 50.6917 235.127 50.3361 235.235C49.9862 235.337 49.6667 235.542 49.3777 235.851C49.0829 236.166 48.8851 236.52 48.7845 236.913C48.6839 237.306 48.7036 237.712 48.8434 238.133C48.9952 238.553 49.2813 238.959 49.7017 239.352C50.2271 239.844 50.7948 240.166 51.4047 240.319C52.0147 240.472 52.5874 240.498 53.1229 240.396C53.6646 240.3 54.0863 240.109 54.3881 239.824L54.3489 241.334C54.0629 241.553 53.6766 241.731 53.1902 241.867C52.7037 242.003 52.1639 242.066 51.5708 242.056C50.9896 242.046 50.3899 241.931 49.7718 241.712C49.1657 241.493 48.5906 241.129 48.0466 240.62C47.3666 239.984 46.8943 239.294 46.6298 238.548C46.3715 237.808 46.3082 237.083 46.4401 236.372C46.5839 235.66 46.9159 235.027 47.4362 234.47C47.9391 233.932 48.4864 233.558 49.0781 233.346C49.6756 233.129 50.2993 233.069 50.9493 233.167C51.6051 233.259 52.2776 233.493 52.967 233.872C53.6563 234.25 54.344 234.76 55.0302 235.401L57.0239 237.265Z" fill="white"/>
<path d="M68.5226 253.649L72.5241 247.819C72.8306 247.373 73.0057 246.923 73.0494 246.47C73.1048 246.016 73.0169 245.576 72.7855 245.15C72.5542 244.724 72.1768 244.332 71.6534 243.973C71.165 243.637 70.6784 243.427 70.1936 243.34C69.7158 243.259 69.2788 243.282 68.8827 243.41C68.4935 243.544 68.1912 243.767 67.9757 244.081L66.0393 242.752C66.317 242.348 66.6971 242.018 67.1794 241.764C67.6618 241.51 68.2085 241.357 68.8196 241.304C69.4424 241.249 70.0941 241.316 70.7747 241.506C71.4671 241.694 72.1552 242.023 72.839 242.492C73.6624 243.057 74.2923 243.695 74.7288 244.405C75.1722 245.12 75.3779 245.882 75.3459 246.692C75.3256 247.499 75.0257 248.325 74.4462 249.169L70.8254 254.445C70.5668 254.821 70.3228 255.244 70.0934 255.713C69.8711 256.186 69.7208 256.622 69.6426 257.02L69.5277 257.188L67.5075 255.801C67.5631 255.511 67.6899 255.162 67.8879 254.753C68.0907 254.338 68.3023 253.97 68.5226 253.649ZM72.2412 248.949L71.3282 250.324L69.3709 248.981C68.8196 248.602 68.2965 248.31 67.8016 248.104C67.3115 247.891 66.8601 247.771 66.4472 247.744C66.0344 247.717 65.6603 247.784 65.3247 247.944C64.994 248.097 64.7089 248.347 64.4695 248.696C64.2252 249.052 64.0827 249.432 64.0421 249.835C64.0014 250.238 64.0817 250.637 64.283 251.032C64.496 251.425 64.8398 251.784 65.3143 252.109C65.9074 252.516 66.517 252.75 67.143 252.81C67.769 252.87 68.3391 252.81 68.8533 252.629C69.3745 252.453 69.7629 252.201 70.0185 251.874L70.206 253.373C69.956 253.632 69.6007 253.866 69.1401 254.073C68.6796 254.281 68.1553 254.424 67.5673 254.503C66.9911 254.579 66.3811 254.556 65.7372 254.432C65.105 254.306 64.4819 254.033 63.8679 253.611C63.1003 253.084 62.5299 252.472 62.1566 251.774C61.7904 251.082 61.6191 250.374 61.643 249.651C61.6786 248.926 61.9119 248.25 62.343 247.622C62.7597 247.015 63.2447 246.562 63.798 246.265C64.3562 245.96 64.9639 245.807 65.6212 245.807C66.2833 245.799 66.9835 245.931 67.7217 246.201C68.4599 246.472 69.2162 246.873 69.9908 247.405L72.2412 248.949Z" fill="white"/>
<path d="M86.0644 263.426L89.1474 257.062C89.3835 256.574 89.4893 256.104 89.4647 255.65C89.4514 255.192 89.2985 254.77 89.006 254.384C88.7134 253.997 88.2816 253.666 87.7103 253.389C87.1771 253.131 86.6644 252.995 86.1721 252.983C85.6875 252.973 85.259 253.062 84.8866 253.248C84.5218 253.438 84.2564 253.705 84.0903 254.048L81.9767 253.024C82.1907 252.582 82.5171 252.199 82.9559 251.876C83.3948 251.552 83.9123 251.319 84.5086 251.175C85.1162 251.027 85.7706 250.996 86.472 251.082C87.1847 251.164 87.9142 251.386 88.6607 251.748C89.5595 252.183 90.2778 252.719 90.8157 253.356C91.3613 253.996 91.6788 254.719 91.7684 255.524C91.8693 256.326 91.6965 257.187 91.25 258.109L88.4604 263.867C88.2611 264.278 88.0832 264.733 87.9267 265.231C87.7778 265.732 87.6945 266.186 87.6769 266.591L87.5883 266.774L85.3832 265.705C85.3947 265.41 85.4677 265.046 85.6023 264.612C85.7407 264.172 85.8947 263.776 86.0644 263.426ZM89.037 258.221L88.3403 259.718L86.2038 258.683C85.602 258.391 85.0411 258.181 84.5209 258.051C84.0043 257.914 83.54 257.863 83.1278 257.898C82.7157 257.933 82.3557 258.055 82.0479 258.264C81.7438 258.464 81.4995 258.755 81.315 259.136C81.1269 259.524 81.0429 259.921 81.0631 260.326C81.0833 260.73 81.2225 261.113 81.4806 261.473C81.75 261.829 82.1437 262.133 82.6616 262.384C83.3091 262.697 83.9467 262.837 84.5747 262.803C85.2026 262.768 85.7572 262.623 86.2386 262.367C86.7275 262.115 87.0738 261.808 87.2774 261.446L87.6874 262.9C87.4791 263.194 87.1628 263.478 86.7385 263.752C86.3142 264.026 85.8173 264.246 85.2478 264.412C84.6896 264.575 84.0829 264.643 83.4277 264.617C82.7839 264.587 82.1268 264.41 81.4565 264.085C80.6187 263.679 79.963 263.159 79.4894 262.526C79.0235 261.896 78.7482 261.221 78.6635 260.503C78.5901 259.781 78.7195 259.077 79.0516 258.392C79.3726 257.729 79.7844 257.209 80.2869 256.832C80.7931 256.447 81.3711 256.205 82.0209 256.106C82.6744 256 83.3864 256.025 84.1568 256.182C84.9272 256.339 85.7351 256.622 86.5806 257.031L89.037 258.221Z" fill="white"/>
<path d="M104.873 270.464L106.968 263.71C107.128 263.192 107.162 262.711 107.07 262.266C106.988 261.815 106.774 261.421 106.427 261.083C106.08 260.745 105.603 260.482 104.997 260.294C104.431 260.118 103.904 260.061 103.415 260.122C102.935 260.186 102.524 260.338 102.184 260.578C101.852 260.82 101.629 261.124 101.516 261.487L99.2731 260.792C99.4185 260.323 99.684 259.895 100.069 259.51C100.455 259.124 100.932 258.816 101.5 258.584C102.078 258.347 102.721 258.219 103.427 258.199C104.144 258.173 104.898 258.283 105.691 258.529C106.644 258.824 107.435 259.247 108.062 259.796C108.698 260.347 109.12 261.014 109.329 261.797C109.549 262.574 109.507 263.452 109.204 264.43L107.308 270.541C107.173 270.978 107.065 271.454 106.985 271.969C106.913 272.488 106.898 272.948 106.941 273.352L106.881 273.546L104.541 272.82C104.508 272.526 104.526 272.155 104.594 271.706C104.665 271.25 104.758 270.836 104.873 270.464ZM107.032 264.873L106.568 266.457L104.3 265.754C103.662 265.555 103.076 265.431 102.542 265.381C102.01 265.322 101.544 265.342 101.142 265.438C100.739 265.535 100.402 265.71 100.129 265.962C99.858 266.206 99.66 266.53 99.5346 266.934C99.4068 267.346 99.3831 267.751 99.4638 268.148C99.5444 268.545 99.7393 268.902 100.048 269.22C100.368 269.532 100.803 269.773 101.353 269.943C102.04 270.156 102.691 270.199 103.307 270.071C103.923 269.943 104.449 269.716 104.887 269.391C105.332 269.069 105.629 268.713 105.776 268.325L106.399 269.701C106.237 270.023 105.967 270.351 105.588 270.686C105.21 271.02 104.752 271.312 104.214 271.562C103.686 271.806 103.096 271.964 102.445 272.037C101.804 272.104 101.127 272.027 100.416 271.806C99.5268 271.53 98.8006 271.115 98.2375 270.559C97.6824 270.006 97.3092 269.38 97.1179 268.683C96.9372 267.98 96.9596 267.265 97.1853 266.537C97.4034 265.834 97.7326 265.258 98.1729 264.81C98.6158 264.354 99.151 264.028 99.7787 263.833C100.409 263.629 101.117 263.548 101.902 263.587C102.687 263.627 103.528 263.786 104.425 264.064L107.032 264.873Z" fill="white"/>
<path d="M124.524 274.604L125.583 267.613C125.664 267.077 125.626 266.596 125.468 266.17C125.319 265.737 125.048 265.379 124.655 265.097C124.261 264.815 123.75 264.626 123.122 264.531C122.537 264.442 122.007 264.465 121.533 264.598C121.067 264.733 120.684 264.945 120.384 265.233C120.092 265.523 119.917 265.856 119.86 266.232L117.538 265.88C117.612 265.395 117.81 264.933 118.133 264.494C118.457 264.055 118.882 263.679 119.409 263.365C119.945 263.044 120.561 262.82 121.256 262.694C121.961 262.562 122.724 262.557 123.544 262.681C124.531 262.831 125.376 263.13 126.079 263.579C126.789 264.029 127.307 264.626 127.631 265.368C127.965 266.103 128.055 266.977 127.901 267.99L126.943 274.316C126.874 274.768 126.839 275.255 126.837 275.777C126.843 276.3 126.898 276.758 127.001 277.15L126.971 277.351L124.548 276.984C124.472 276.698 124.434 276.328 124.434 275.875C124.435 275.413 124.465 274.989 124.524 274.604ZM125.821 268.753L125.599 270.389L123.252 270.033C122.591 269.933 121.993 269.898 121.457 269.928C120.923 269.95 120.465 270.039 120.081 270.195C119.698 270.351 119.391 270.574 119.158 270.864C118.927 271.146 118.78 271.496 118.717 271.914C118.652 272.341 118.689 272.745 118.829 273.125C118.968 273.506 119.214 273.83 119.567 274.097C119.93 274.358 120.396 274.531 120.965 274.617C121.676 274.725 122.327 274.67 122.916 274.451C123.506 274.232 123.993 273.929 124.377 273.542C124.769 273.156 125.009 272.76 125.096 272.354L125.918 273.622C125.806 273.964 125.588 274.329 125.264 274.717C124.94 275.104 124.531 275.462 124.036 275.789C123.551 276.109 122.992 276.354 122.358 276.523C121.734 276.686 121.054 276.711 120.318 276.599C119.398 276.46 118.617 276.158 117.977 275.693C117.346 275.229 116.883 274.667 116.589 274.006C116.305 273.338 116.22 272.627 116.334 271.874C116.445 271.146 116.684 270.527 117.052 270.018C117.422 269.501 117.902 269.098 118.493 268.811C119.086 268.516 119.773 268.329 120.556 268.251C121.338 268.172 122.194 268.204 123.122 268.344L125.821 268.753Z" fill="white"/>
<path d="M144.573 275.755V268.684C144.573 268.142 144.463 267.672 144.243 267.274C144.031 266.868 143.71 266.555 143.278 266.335C142.846 266.115 142.313 266.005 141.678 266.005C141.086 266.005 140.566 266.106 140.117 266.31C139.677 266.513 139.33 266.779 139.076 267.109C138.83 267.439 138.708 267.795 138.708 268.176H136.359C136.359 267.685 136.486 267.198 136.74 266.716C136.994 266.233 137.358 265.798 137.832 265.408C138.314 265.01 138.89 264.697 139.558 264.469C140.235 264.232 140.989 264.113 141.818 264.113C142.817 264.113 143.697 264.283 144.459 264.621C145.229 264.96 145.83 265.472 146.261 266.157C146.702 266.834 146.922 267.685 146.922 268.709V275.107C146.922 275.564 146.96 276.051 147.036 276.567C147.121 277.084 147.243 277.528 147.404 277.9V278.104H144.954C144.835 277.833 144.742 277.473 144.675 277.024C144.607 276.567 144.573 276.144 144.573 275.755ZM144.979 269.775L145.005 271.426H142.631C141.962 271.426 141.365 271.481 140.841 271.591C140.316 271.692 139.876 271.849 139.52 272.061C139.165 272.272 138.894 272.539 138.708 272.86C138.522 273.174 138.428 273.542 138.428 273.965C138.428 274.396 138.526 274.79 138.72 275.146C138.915 275.501 139.207 275.785 139.596 275.996C139.994 276.199 140.481 276.301 141.056 276.301C141.776 276.301 142.411 276.148 142.961 275.844C143.511 275.539 143.947 275.167 144.268 274.727C144.598 274.286 144.776 273.859 144.802 273.444L145.804 274.574C145.745 274.93 145.584 275.323 145.322 275.755C145.06 276.187 144.708 276.601 144.268 276.999C143.837 277.388 143.32 277.714 142.719 277.977C142.127 278.23 141.458 278.357 140.714 278.357C139.783 278.357 138.966 278.175 138.263 277.812C137.569 277.448 137.028 276.961 136.638 276.352C136.258 275.734 136.067 275.044 136.067 274.282C136.067 273.546 136.211 272.898 136.499 272.34C136.787 271.773 137.201 271.303 137.743 270.931C138.285 270.55 138.936 270.262 139.698 270.067C140.46 269.873 141.31 269.775 142.25 269.775H144.979Z" fill="white"/>
<path d="M164.568 273.889L163.509 266.897C163.428 266.362 163.249 265.914 162.971 265.553C162.701 265.183 162.336 264.922 161.877 264.769C161.417 264.616 160.873 264.587 160.246 264.682C159.66 264.771 159.161 264.949 158.747 265.217C158.343 265.484 158.04 265.8 157.838 266.164C157.645 266.527 157.577 266.897 157.634 267.274L155.312 267.626C155.238 267.14 155.291 266.64 155.47 266.125C155.648 265.61 155.943 265.125 156.353 264.669C156.77 264.203 157.293 263.807 157.919 263.481C158.553 263.145 159.28 262.915 160.1 262.791C161.088 262.641 161.984 262.677 162.787 262.898C163.6 263.117 164.27 263.533 164.8 264.146C165.336 264.75 165.681 265.558 165.835 266.57L166.793 272.897C166.862 273.348 166.972 273.824 167.125 274.323C167.286 274.821 167.474 275.242 167.689 275.586L167.719 275.787L165.297 276.154C165.139 275.904 164.993 275.562 164.859 275.129C164.723 274.687 164.627 274.274 164.568 273.889ZM164.074 267.916L164.346 269.544L161.999 269.899C161.338 270 160.756 270.143 160.254 270.331C159.751 270.51 159.339 270.73 159.019 270.993C158.699 271.255 158.472 271.56 158.336 271.905C158.198 272.243 158.162 272.621 158.225 273.039C158.29 273.466 158.445 273.841 158.69 274.163C158.936 274.485 159.267 274.722 159.684 274.873C160.108 275.014 160.604 275.041 161.173 274.955C161.884 274.847 162.489 274.602 162.987 274.218C163.486 273.834 163.861 273.401 164.113 272.918C164.373 272.433 164.485 271.984 164.448 271.57L165.609 272.537C165.604 272.897 165.504 273.31 165.309 273.776C165.114 274.242 164.829 274.705 164.453 275.164C164.085 275.614 163.623 276.013 163.068 276.363C162.521 276.703 161.879 276.928 161.142 277.04C160.222 277.179 159.387 277.122 158.638 276.867C157.897 276.611 157.289 276.211 156.813 275.667C156.344 275.113 156.052 274.46 155.938 273.707C155.827 272.979 155.873 272.317 156.074 271.722C156.273 271.118 156.613 270.591 157.093 270.142C157.571 269.684 158.172 269.302 158.896 268.996C159.62 268.689 160.447 268.465 161.375 268.325L164.074 267.916Z" fill="white"/>
<path d="M184.058 269.048L181.964 262.294C181.803 261.777 181.559 261.361 181.231 261.046C180.908 260.721 180.509 260.517 180.031 260.434C179.554 260.352 179.012 260.405 178.406 260.593C177.84 260.769 177.373 261.02 177.004 261.347C176.644 261.671 176.392 262.028 176.247 262.419C176.11 262.807 176.098 263.183 176.211 263.547L173.968 264.242C173.823 263.773 173.8 263.271 173.899 262.735C173.999 262.199 174.217 261.675 174.555 261.163C174.898 260.64 175.355 260.17 175.925 259.754C176.502 259.327 177.186 258.991 177.979 258.745C178.932 258.449 179.823 258.35 180.651 258.448C181.487 258.543 182.213 258.854 182.828 259.381C183.449 259.897 183.911 260.644 184.214 261.623L186.11 267.734C186.245 268.17 186.426 268.624 186.651 269.094C186.885 269.562 187.134 269.95 187.398 270.258L187.458 270.452L185.118 271.178C184.925 270.955 184.729 270.639 184.532 270.23C184.331 269.814 184.174 269.42 184.058 269.048ZM182.675 263.216L183.188 264.785L180.921 265.489C180.282 265.687 179.729 265.916 179.26 266.176C178.789 266.429 178.415 266.709 178.138 267.016C177.861 267.324 177.682 267.658 177.599 268.021C177.514 268.375 177.534 268.754 177.659 269.158C177.787 269.571 177.997 269.918 178.288 270.2C178.579 270.481 178.942 270.666 179.377 270.753C179.817 270.829 180.312 270.782 180.861 270.611C181.549 270.398 182.11 270.064 182.545 269.61C182.98 269.156 183.286 268.672 183.463 268.156C183.648 267.638 183.691 267.177 183.592 266.773L184.885 267.555C184.934 267.913 184.897 268.336 184.774 268.826C184.651 269.316 184.439 269.816 184.136 270.326C183.839 270.826 183.442 271.29 182.946 271.719C182.456 272.137 181.855 272.456 181.143 272.677C180.254 272.953 179.42 273.021 178.641 272.881C177.871 272.739 177.209 272.435 176.657 271.968C176.11 271.491 175.724 270.889 175.498 270.161C175.28 269.458 175.226 268.797 175.335 268.178C175.442 267.551 175.699 266.98 176.106 266.464C176.51 265.939 177.048 265.471 177.717 265.06C178.387 264.648 179.171 264.303 180.068 264.025L182.675 263.216Z" fill="white"/>
<path d="M202.603 261.342L199.52 254.978C199.284 254.491 198.98 254.116 198.609 253.854C198.241 253.581 197.815 253.439 197.331 253.429C196.847 253.419 196.319 253.553 195.747 253.829C195.214 254.088 194.79 254.406 194.475 254.784C194.168 255.159 193.971 255.55 193.887 255.958C193.81 256.362 193.854 256.736 194.02 257.078L191.907 258.102C191.693 257.66 191.595 257.167 191.613 256.622C191.631 256.077 191.769 255.527 192.026 254.97C192.286 254.401 192.668 253.868 193.17 253.371C193.676 252.863 194.302 252.428 195.048 252.066C195.947 251.631 196.813 251.399 197.646 251.372C198.487 251.341 199.251 251.54 199.938 251.968C200.63 252.386 201.199 253.055 201.645 253.977L204.435 259.735C204.634 260.147 204.88 260.568 205.174 260.999C205.475 261.427 205.779 261.774 206.086 262.039L206.175 262.221L203.97 263.29C203.745 263.098 203.505 262.814 203.248 262.44C202.988 262.058 202.773 261.692 202.603 261.342ZM200.362 255.784L201.104 257.258L198.968 258.293C198.366 258.584 197.853 258.894 197.429 259.222C197.001 259.542 196.673 259.875 196.445 260.22C196.218 260.566 196.09 260.924 196.063 261.294C196.032 261.657 196.109 262.029 196.293 262.41C196.481 262.798 196.74 263.11 197.071 263.345C197.401 263.58 197.787 263.708 198.23 263.729C198.676 263.738 199.159 263.617 199.676 263.366C200.324 263.053 200.829 262.639 201.191 262.125C201.553 261.611 201.783 261.086 201.881 260.549C201.986 260.009 201.96 259.547 201.802 259.163L203.197 259.743C203.298 260.088 203.325 260.513 203.277 261.015C203.229 261.518 203.094 262.045 202.871 262.595C202.653 263.133 202.33 263.651 201.904 264.15C201.481 264.636 200.935 265.042 200.265 265.367C199.427 265.773 198.612 265.965 197.822 265.944C197.038 265.919 196.339 265.717 195.723 265.338C195.111 264.948 194.638 264.411 194.306 263.725C193.985 263.062 193.832 262.417 193.848 261.789C193.86 261.153 194.028 260.55 194.353 259.978C194.675 259.399 195.136 258.856 195.736 258.349C196.337 257.842 197.06 257.383 197.905 256.974L200.362 255.784Z" fill="white"/>
<path d="M219.785 250.945L215.783 245.115C215.477 244.668 215.12 244.343 214.714 244.14C214.309 243.924 213.867 243.848 213.386 243.911C212.906 243.974 212.404 244.185 211.881 244.544C211.392 244.879 211.021 245.258 210.766 245.679C210.518 246.095 210.383 246.512 210.36 246.927C210.344 247.338 210.444 247.701 210.66 248.015L208.724 249.344C208.446 248.939 208.275 248.466 208.211 247.925C208.148 247.383 208.201 246.818 208.372 246.229C208.544 245.628 208.842 245.044 209.264 244.477C209.688 243.899 210.242 243.375 210.926 242.905C211.749 242.34 212.57 241.982 213.39 241.83C214.217 241.673 215.002 241.755 215.746 242.076C216.492 242.385 217.154 242.962 217.734 243.807L221.355 249.082C221.613 249.459 221.92 249.838 222.275 250.221C222.637 250.599 222.99 250.896 223.333 251.112L223.448 251.279L221.428 252.666C221.177 252.509 220.896 252.266 220.587 251.934C220.272 251.596 220.005 251.266 219.785 250.945ZM216.736 245.785L217.691 247.131L215.733 248.475C215.182 248.853 214.721 249.236 214.351 249.624C213.976 250.004 213.702 250.383 213.528 250.758C213.355 251.134 213.282 251.507 213.311 251.877C213.335 252.241 213.466 252.597 213.706 252.946C213.95 253.302 214.253 253.571 214.615 253.754C214.976 253.937 215.377 254.006 215.818 253.96C216.261 253.902 216.72 253.711 217.194 253.385C217.787 252.978 218.224 252.493 218.506 251.93C218.787 251.368 218.935 250.814 218.952 250.269C218.975 249.72 218.879 249.267 218.666 248.91L220.132 249.275C220.284 249.601 220.374 250.017 220.402 250.521C220.43 251.025 220.375 251.566 220.238 252.143C220.102 252.708 219.861 253.269 219.514 253.825C219.169 254.37 218.689 254.853 218.075 255.275C217.308 255.801 216.531 256.113 215.746 256.211C214.968 256.304 214.246 256.209 213.58 255.927C212.917 255.633 212.369 255.172 211.938 254.544C211.522 253.937 211.274 253.322 211.195 252.698C211.111 252.068 211.188 251.446 211.423 250.832C211.655 250.212 212.029 249.606 212.547 249.014C213.065 248.423 213.711 247.861 214.486 247.329L216.736 245.785Z" fill="white"/>
<path d="M235.214 238.091L230.384 232.926C230.015 232.53 229.613 232.263 229.181 232.122C228.749 231.97 228.3 231.961 227.835 232.095C227.369 232.229 226.904 232.513 226.441 232.947C226.008 233.351 225.697 233.781 225.508 234.236C225.326 234.685 225.254 235.116 225.294 235.531C225.34 235.94 225.494 236.283 225.754 236.561L224.038 238.165C223.703 237.807 223.463 237.365 223.319 236.839C223.175 236.313 223.143 235.746 223.224 235.138C223.304 234.518 223.511 233.896 223.843 233.273C224.176 232.637 224.645 232.036 225.251 231.47C225.98 230.787 226.739 230.31 227.526 230.037C228.32 229.758 229.109 229.722 229.892 229.928C230.676 230.122 231.418 230.593 232.117 231.341L236.487 236.014C236.8 236.348 237.16 236.677 237.568 237.002C237.983 237.322 238.376 237.562 238.747 237.724L238.886 237.873L237.097 239.546C236.825 239.429 236.511 239.23 236.156 238.949C235.794 238.661 235.48 238.375 235.214 238.091ZM231.427 233.446L232.573 234.634L230.839 236.256C230.35 236.712 229.952 237.16 229.644 237.599C229.33 238.031 229.116 238.446 229 238.844C228.885 239.241 228.87 239.621 228.953 239.983C229.031 240.339 229.215 240.671 229.504 240.98C229.798 241.296 230.138 241.517 230.523 241.643C230.908 241.77 231.315 241.778 231.744 241.666C232.173 241.543 232.598 241.285 233.019 240.892C233.544 240.4 233.904 239.855 234.097 239.257C234.291 238.659 234.355 238.089 234.289 237.548C234.23 237.001 234.068 236.568 233.803 236.247L235.307 236.388C235.507 236.688 235.658 237.085 235.761 237.579C235.865 238.074 235.891 238.617 235.841 239.208C235.792 239.787 235.638 240.378 235.378 240.98C235.119 241.57 234.717 242.119 234.173 242.628C233.493 243.264 232.772 243.689 232.01 243.903C231.255 244.111 230.527 244.125 229.826 243.946C229.126 243.755 228.516 243.381 227.996 242.825C227.493 242.287 227.156 241.716 226.984 241.111C226.807 240.501 226.789 239.874 226.931 239.232C227.066 238.584 227.345 237.929 227.769 237.267C228.192 236.604 228.747 235.952 229.433 235.31L231.427 233.446Z" fill="white"/>
<path d="M248.545 223.071L242.995 218.688C242.57 218.352 242.134 218.147 241.685 218.073C241.235 217.988 240.79 218.046 240.35 218.248C239.91 218.45 239.493 218.801 239.099 219.299C238.732 219.764 238.489 220.235 238.37 220.713C238.257 221.184 238.251 221.622 238.353 222.026C238.46 222.423 238.663 222.74 238.961 222.976L237.506 224.819C237.12 224.514 236.817 224.113 236.596 223.615C236.375 223.117 236.258 222.561 236.247 221.948C236.234 221.322 236.345 220.677 236.58 220.01C236.813 219.332 237.187 218.668 237.701 218.017C238.32 217.233 238.999 216.647 239.737 216.259C240.48 215.865 241.254 215.711 242.06 215.797C242.864 215.871 243.668 216.226 244.471 216.86L249.492 220.827C249.851 221.11 250.256 221.382 250.709 221.642C251.166 221.895 251.591 222.075 251.983 222.179L252.142 222.305L250.624 224.228C250.338 224.153 249.998 224.003 249.604 223.778C249.203 223.548 248.85 223.312 248.545 223.071ZM244.104 219.046L245.415 220.049L243.943 221.912C243.529 222.436 243.202 222.939 242.963 223.419C242.718 223.893 242.568 224.336 242.514 224.746C242.459 225.156 242.501 225.534 242.638 225.879C242.768 226.22 242.999 226.521 243.331 226.783C243.67 227.051 244.039 227.218 244.439 227.286C244.838 227.353 245.242 227.3 245.649 227.126C246.055 226.939 246.436 226.62 246.793 226.169C247.239 225.604 247.513 225.012 247.615 224.391C247.717 223.771 247.695 223.198 247.549 222.673C247.408 222.141 247.183 221.736 246.873 221.459L248.381 221.373C248.624 221.64 248.833 222.01 249.009 222.483C249.185 222.957 249.293 223.489 249.332 224.081C249.37 224.661 249.306 225.268 249.139 225.902C248.971 226.525 248.656 227.128 248.195 227.713C247.618 228.443 246.968 228.971 246.247 229.297C245.532 229.616 244.814 229.739 244.095 229.667C243.374 229.583 242.714 229.305 242.117 228.833C241.539 228.376 241.12 227.862 240.86 227.29C240.593 226.713 240.482 226.096 240.525 225.44C240.562 224.779 240.74 224.089 241.06 223.371C241.379 222.653 241.83 221.925 242.412 221.188L244.104 219.046Z" fill="white"/>
<path d="M259.474 206.223L253.331 202.721C252.86 202.453 252.398 202.316 251.943 202.31C251.485 202.292 251.054 202.417 250.649 202.683C250.244 202.949 249.884 203.357 249.57 203.909C249.277 204.423 249.107 204.926 249.061 205.416C249.02 205.899 249.08 206.333 249.241 206.717C249.406 207.093 249.654 207.376 249.985 207.565L248.821 209.605C248.395 209.362 248.035 209.011 247.742 208.551C247.448 208.092 247.25 207.56 247.146 206.955C247.04 206.339 247.053 205.684 247.185 204.99C247.315 204.284 247.585 203.571 247.996 202.851C248.491 201.983 249.074 201.302 249.745 200.808C250.42 200.307 251.163 200.038 251.972 200.003C252.778 199.956 253.626 200.186 254.516 200.693L260.075 203.862C260.472 204.089 260.913 204.297 261.399 204.486C261.89 204.668 262.337 204.782 262.74 204.826L262.916 204.927L261.703 207.056C261.409 207.024 261.05 206.927 260.627 206.764C260.196 206.596 259.812 206.416 259.474 206.223ZM254.48 202.909L255.927 203.704L254.751 205.767C254.42 206.347 254.172 206.893 254.008 207.403C253.836 207.909 253.754 208.369 253.762 208.783C253.77 209.197 253.867 209.564 254.054 209.885C254.234 210.202 254.508 210.465 254.875 210.675C255.25 210.888 255.64 210.999 256.046 211.006C256.451 211.013 256.842 210.899 257.218 210.666C257.592 210.421 257.921 210.049 258.206 209.549C258.563 208.924 258.745 208.297 258.752 207.668C258.76 207.039 258.653 206.476 258.43 205.979C258.211 205.474 257.927 205.108 257.58 204.88L259.058 204.569C259.337 204.796 259.6 205.131 259.845 205.573C260.09 206.014 260.276 206.525 260.404 207.104C260.528 207.672 260.555 208.282 260.486 208.934C260.413 209.574 260.192 210.218 259.823 210.865C259.362 211.674 258.799 212.293 258.135 212.723C257.475 213.146 256.784 213.375 256.062 213.412C255.337 213.437 254.643 213.26 253.982 212.883C253.342 212.518 252.851 212.073 252.508 211.546C252.158 211.015 251.955 210.422 251.9 209.767C251.837 209.108 251.91 208.4 252.118 207.641C252.326 206.883 252.663 206.096 253.129 205.28L254.48 202.909Z" fill="white"/>
<path d="M267.756 187.928L261.157 185.386C260.652 185.191 260.174 185.125 259.724 185.187C259.269 185.239 258.861 185.426 258.5 185.75C258.14 186.073 257.845 186.531 257.617 187.124C257.404 187.677 257.312 188.199 257.34 188.69C257.371 189.174 257.495 189.594 257.712 189.949C257.932 190.297 258.219 190.539 258.575 190.676L257.73 192.868C257.272 192.691 256.864 192.398 256.505 191.988C256.146 191.577 255.87 191.081 255.677 190.499C255.48 189.905 255.394 189.256 255.421 188.55C255.444 187.833 255.604 187.087 255.902 186.313C256.261 185.381 256.736 184.621 257.326 184.032C257.918 183.435 258.612 183.058 259.407 182.902C260.197 182.735 261.07 182.835 262.026 183.203L267.996 185.504C268.423 185.668 268.89 185.808 269.4 185.922C269.912 186.029 270.37 186.074 270.776 186.058L270.965 186.131L270.084 188.417C269.789 188.431 269.42 188.388 268.977 188.29C268.526 188.189 268.119 188.068 267.756 187.928ZM262.322 185.399L263.871 185.969L263.018 188.184C262.777 188.808 262.614 189.385 262.528 189.914C262.434 190.44 262.422 190.907 262.492 191.315C262.561 191.723 262.713 192.071 262.946 192.361C263.171 192.647 263.481 192.866 263.876 193.018C264.279 193.174 264.681 193.224 265.083 193.17C265.485 193.117 265.854 192.946 266.192 192.659C266.524 192.361 266.794 191.943 267.001 191.406C267.26 190.735 267.346 190.088 267.259 189.465C267.173 188.842 266.982 188.301 266.687 187.843C266.395 187.377 266.06 187.057 265.682 186.884L267.097 186.355C267.407 186.538 267.717 186.829 268.025 187.229C268.334 187.629 268.594 188.106 268.807 188.66C269.015 189.203 269.134 189.802 269.163 190.457C269.186 191.101 269.064 191.77 268.797 192.465C268.462 193.334 267.999 194.031 267.406 194.555C266.817 195.072 266.168 195.403 265.46 195.547C264.746 195.68 264.034 195.61 263.323 195.336C262.636 195.071 262.084 194.704 261.666 194.235C261.24 193.762 260.951 193.206 260.798 192.567C260.638 191.925 260.604 191.213 260.696 190.432C260.788 189.652 261.003 188.823 261.341 187.946L262.322 185.399Z" fill="white"/>
<path d="M273.204 168.599L266.299 167.074C265.77 166.957 265.288 166.963 264.852 167.092C264.41 167.211 264.034 167.458 263.726 167.832C263.418 168.206 263.196 168.703 263.059 169.322C262.931 169.901 262.918 170.431 263.02 170.913C263.123 171.386 263.309 171.783 263.576 172.102C263.846 172.413 264.166 172.609 264.538 172.691L264.031 174.985C263.552 174.879 263.104 174.65 262.688 174.298C262.272 173.946 261.925 173.497 261.647 172.95C261.362 172.393 261.181 171.763 261.102 171.061C261.016 170.349 261.063 169.588 261.242 168.778C261.458 167.803 261.813 166.98 262.308 166.309C262.804 165.63 263.434 165.154 264.196 164.88C264.952 164.596 265.83 164.565 266.83 164.786L273.078 166.166C273.525 166.265 274.008 166.333 274.528 166.369C275.051 166.398 275.511 166.374 275.91 166.298L276.108 166.341L275.579 168.734C275.289 168.791 274.918 168.804 274.465 168.774C274.005 168.741 273.584 168.683 273.204 168.599ZM267.453 166.913L269.07 167.244L268.558 169.562C268.413 170.215 268.338 170.809 268.333 171.345C268.319 171.88 268.377 172.343 268.507 172.736C268.637 173.129 268.838 173.451 269.112 173.702C269.378 173.951 269.717 174.122 270.131 174.213C270.552 174.306 270.957 174.296 271.346 174.182C271.736 174.069 272.075 173.845 272.366 173.511C272.65 173.166 272.854 172.713 272.978 172.151C273.134 171.448 273.122 170.796 272.943 170.193C272.764 169.59 272.494 169.084 272.134 168.675C271.775 168.258 271.396 167.992 270.997 167.878L272.317 167.142C272.651 167.277 273.001 167.518 273.365 167.868C273.73 168.217 274.06 168.649 274.353 169.165C274.64 169.67 274.847 170.245 274.973 170.888C275.094 171.522 275.073 172.202 274.913 172.929C274.712 173.838 274.358 174.596 273.851 175.204C273.346 175.803 272.754 176.227 272.075 176.476C271.39 176.714 270.675 176.751 269.931 176.587C269.212 176.428 268.611 176.148 268.128 175.747C267.636 175.343 267.267 174.837 267.02 174.228C266.765 173.617 266.624 172.918 266.599 172.133C266.573 171.347 266.661 170.495 266.864 169.578L267.453 166.913Z" fill="white"/>
<path d="M275.695 148.672L268.639 148.198C268.099 148.162 267.623 148.24 267.211 148.433C266.792 148.617 266.458 148.917 266.209 149.333C265.961 149.749 265.815 150.274 265.773 150.907C265.733 151.498 265.799 152.024 265.972 152.485C266.145 152.938 266.388 153.302 266.7 153.578C267.013 153.845 267.36 153.991 267.74 154.016L267.582 156.36C267.093 156.327 266.616 156.168 266.151 155.882C265.687 155.596 265.276 155.204 264.92 154.705C264.555 154.197 264.281 153.602 264.098 152.919C263.907 152.228 263.839 151.468 263.895 150.641C263.962 149.644 264.189 148.778 264.578 148.04C264.968 147.294 265.519 146.729 266.232 146.344C266.937 145.951 267.8 145.788 268.822 145.857L275.206 146.285C275.662 146.316 276.15 146.311 276.67 146.269C277.191 146.219 277.643 146.127 278.025 145.991L278.228 146.005L278.064 148.449C277.785 148.549 277.42 148.618 276.968 148.656C276.508 148.693 276.083 148.698 275.695 148.672ZM269.756 147.866L271.404 147.951L271.245 150.32C271.2 150.987 271.215 151.586 271.29 152.117C271.356 152.647 271.483 153.097 271.67 153.466C271.857 153.835 272.105 154.123 272.414 154.33C272.714 154.537 273.075 154.655 273.497 154.683C273.928 154.712 274.327 154.641 274.695 154.471C275.062 154.3 275.365 154.028 275.602 153.654C275.831 153.27 275.965 152.792 276.004 152.217C276.052 151.5 275.942 150.856 275.675 150.287C275.408 149.717 275.066 149.258 274.648 148.907C274.231 148.548 273.817 148.342 273.405 148.289L274.599 147.364C274.95 147.447 275.332 147.634 275.745 147.925C276.158 148.215 276.548 148.594 276.916 149.059C277.275 149.516 277.566 150.053 277.787 150.67C278.001 151.278 278.083 151.954 278.033 152.697C277.97 153.626 277.734 154.429 277.324 155.105C276.914 155.773 276.393 156.281 275.758 156.629C275.117 156.967 274.416 157.111 273.656 157.06C272.921 157.011 272.284 156.824 271.746 156.499C271.2 156.174 270.759 155.729 270.424 155.164C270.08 154.598 269.837 153.928 269.693 153.155C269.55 152.382 269.51 151.527 269.573 150.59L269.756 147.866Z" fill="white"/>
<path d="M275.172 128.597L268.125 129.185C267.585 129.23 267.126 129.379 266.748 129.631C266.361 129.876 266.076 130.223 265.892 130.671C265.709 131.12 265.644 131.66 265.697 132.293C265.746 132.883 265.891 133.393 266.13 133.823C266.369 134.245 266.664 134.569 267.014 134.794C267.363 135.011 267.728 135.104 268.107 135.072L268.303 137.413C267.814 137.454 267.318 137.368 266.816 137.155C266.314 136.942 265.85 136.616 265.422 136.176C264.986 135.728 264.626 135.181 264.342 134.533C264.05 133.878 263.869 133.137 263.8 132.311C263.717 131.316 263.812 130.424 264.086 129.637C264.36 128.841 264.82 128.2 265.467 127.713C266.105 127.218 266.934 126.928 267.955 126.843L274.331 126.31C274.787 126.272 275.268 126.193 275.777 126.075C276.284 125.947 276.717 125.788 277.074 125.597L277.277 125.58L277.481 128.021C277.221 128.162 276.87 128.285 276.429 128.39C275.979 128.495 275.56 128.564 275.172 128.597ZM269.179 128.689L270.822 128.527L271.02 130.893C271.075 131.559 271.18 132.149 271.333 132.663C271.478 133.177 271.671 133.603 271.911 133.939C272.151 134.276 272.44 134.524 272.776 134.682C273.103 134.842 273.478 134.904 273.9 134.869C274.33 134.833 274.714 134.703 275.052 134.479C275.39 134.256 275.648 133.941 275.827 133.536C275.996 133.122 276.057 132.629 276.009 132.055C275.949 131.339 275.744 130.719 275.395 130.196C275.045 129.673 274.638 129.27 274.173 128.986C273.706 128.693 273.266 128.552 272.85 128.561L273.893 127.468C274.252 127.497 274.658 127.625 275.11 127.85C275.562 128.076 276.004 128.391 276.437 128.797C276.861 129.194 277.229 129.682 277.54 130.259C277.843 130.828 278.025 131.484 278.087 132.226C278.164 133.154 278.051 133.983 277.747 134.713C277.442 135.435 277.002 136.015 276.427 136.454C275.843 136.885 275.172 137.132 274.412 137.195C273.679 137.257 273.021 137.167 272.441 136.927C271.852 136.687 271.349 136.313 270.933 135.804C270.508 135.296 270.167 134.671 269.91 133.928C269.653 133.185 269.485 132.346 269.407 131.409L269.179 128.689Z" fill="white"/>
<path d="M271.648 108.826L264.769 110.464C264.242 110.589 263.81 110.805 263.474 111.111C263.128 111.411 262.898 111.796 262.784 112.267C262.67 112.738 262.686 113.282 262.833 113.9C262.97 114.476 263.19 114.959 263.491 115.348C263.791 115.729 264.13 116.005 264.51 116.176C264.888 116.338 265.262 116.375 265.633 116.287L266.177 118.572C265.699 118.685 265.196 118.675 264.668 118.539C264.14 118.404 263.632 118.151 263.143 117.78C262.645 117.403 262.207 116.916 261.83 116.318C261.442 115.714 261.153 115.009 260.961 114.202C260.729 113.231 260.69 112.335 260.843 111.516C260.994 110.688 261.353 109.985 261.92 109.406C262.477 108.821 263.253 108.41 264.249 108.173L270.474 106.691C270.918 106.585 271.383 106.436 271.868 106.242C272.35 106.04 272.754 105.818 273.079 105.575L273.277 105.528L273.844 107.912C273.608 108.09 273.28 108.263 272.859 108.433C272.43 108.605 272.026 108.736 271.648 108.826ZM265.737 109.816L267.336 109.409L267.886 111.718C268.041 112.369 268.233 112.936 268.461 113.421C268.681 113.908 268.936 114.3 269.224 114.597C269.512 114.894 269.834 115.095 270.19 115.202C270.538 115.311 270.918 115.316 271.329 115.218C271.749 115.118 272.109 114.932 272.41 114.661C272.711 114.389 272.919 114.039 273.035 113.611C273.14 113.177 273.126 112.68 272.993 112.121C272.826 111.421 272.531 110.838 272.107 110.374C271.684 109.909 271.22 109.571 270.718 109.361C270.213 109.141 269.756 109.067 269.347 109.139L270.214 107.901C270.573 107.877 270.993 107.942 271.474 108.097C271.955 108.253 272.44 108.498 272.928 108.834C273.407 109.164 273.844 109.591 274.238 110.115C274.622 110.632 274.901 111.253 275.073 111.978C275.289 112.883 275.301 113.72 275.11 114.488C274.916 115.247 274.568 115.887 274.066 116.407C273.553 116.92 272.926 117.265 272.185 117.442C271.469 117.612 270.805 117.622 270.195 117.472C269.577 117.323 269.024 117.028 268.536 116.588C268.04 116.149 267.61 115.582 267.244 114.886C266.878 114.19 266.586 113.385 266.369 112.471L265.737 109.816Z" fill="white"/>
<path d="M265.201 89.8065L258.645 92.4563C258.143 92.6592 257.749 92.9373 257.462 93.2903C257.165 93.6387 256.995 94.0543 256.953 94.5369C256.911 95.0196 257.008 95.5551 257.246 96.1437C257.468 96.6929 257.757 97.1375 258.114 97.4772C258.467 97.8092 258.844 98.031 259.246 98.1427C259.644 98.2466 260.019 98.2272 260.372 98.0844L261.252 100.262C260.797 100.446 260.298 100.511 259.756 100.456C259.214 100.401 258.673 100.227 258.135 99.9337C257.585 99.6354 257.079 99.2192 256.617 98.6849C256.143 98.146 255.751 97.492 255.44 96.723C255.066 95.7971 254.893 94.9176 254.922 94.0845C254.947 93.2436 255.196 92.4946 255.67 91.8375C256.133 91.1757 256.839 90.653 257.789 90.2692L263.721 87.8716C264.145 87.7004 264.582 87.4827 265.032 87.2186C265.479 86.9467 265.845 86.6664 266.13 86.3778L266.318 86.3017L267.236 88.5734C267.029 88.7847 266.731 89.0058 266.34 89.2367C265.942 89.4707 265.562 89.6607 265.201 89.8065ZM259.505 91.6705L261.026 91.0285L261.915 93.2296C262.166 93.8495 262.441 94.3821 262.739 94.8274C263.03 95.2758 263.34 95.6252 263.669 95.8755C263.999 96.1257 264.347 96.2769 264.715 96.3291C265.076 96.3843 265.452 96.3327 265.844 96.1741C266.244 96.0124 266.573 95.7747 266.829 95.461C267.086 95.1473 267.239 94.7704 267.29 94.3301C267.329 93.8852 267.241 93.3959 267.025 92.8624C266.756 92.1954 266.376 91.6639 265.888 91.2681C265.399 90.8722 264.891 90.6076 264.362 90.4744C263.83 90.3332 263.367 90.3286 262.973 90.4605L263.645 89.1072C263.997 89.029 264.422 89.0306 264.921 89.1121C265.419 89.1936 265.935 89.3638 266.469 89.6228C266.992 89.8771 267.487 90.2337 267.956 90.6925C268.413 91.1466 268.781 91.719 269.06 92.4095C269.409 93.2727 269.547 94.0981 269.472 94.8857C269.395 95.6655 269.147 96.3501 268.728 96.9394C268.298 97.524 267.729 97.9591 267.023 98.2445C266.341 98.5204 265.686 98.6296 265.061 98.5721C264.427 98.5178 263.836 98.3093 263.288 97.9467C262.732 97.5872 262.221 97.0908 261.755 96.4575C261.289 95.8243 260.88 95.0721 260.528 94.2011L259.505 91.6705Z" fill="white"/>
<path d="M255.979 71.9673L249.893 75.5693C249.427 75.8452 249.079 76.1792 248.849 76.5712C248.607 76.9602 248.501 77.3965 248.532 77.88C248.562 78.3635 248.739 78.8784 249.063 79.4247C249.364 79.9345 249.717 80.3307 250.12 80.6132C250.519 80.8885 250.925 81.0513 251.339 81.1016C251.748 81.1447 252.116 81.0693 252.444 80.8753L253.64 82.8964C253.218 83.1464 252.735 83.285 252.19 83.3123C251.646 83.3395 251.085 83.2484 250.509 83.0388C249.921 82.8263 249.358 82.4906 248.821 82.0316C248.272 81.5696 247.786 80.9818 247.364 80.268C246.855 79.4086 246.552 78.5649 246.456 77.737C246.355 76.9018 246.489 76.1239 246.859 75.4032C247.218 74.6796 247.838 74.0569 248.719 73.5353L254.225 70.276C254.618 70.0432 255.018 69.7626 255.423 69.434C255.824 69.0982 256.144 68.7663 256.383 68.4382L256.558 68.3347L257.806 70.4432C257.633 70.6832 257.371 70.9465 257.019 71.2333C256.66 71.5243 256.314 71.769 255.979 71.9673ZM250.626 74.6636L252.033 73.8011L253.243 75.844C253.583 76.4194 253.934 76.9048 254.296 77.3003C254.651 77.7002 255.01 77.9991 255.373 78.1972C255.736 78.3954 256.104 78.4926 256.475 78.489C256.84 78.4897 257.204 78.3823 257.568 78.1668C257.939 77.9469 258.229 77.6627 258.435 77.3141C258.642 76.9655 258.737 76.5698 258.721 76.127C258.693 75.6812 258.533 75.2107 258.24 74.7154C257.873 74.0964 257.419 73.6277 256.876 73.3095C256.334 72.9913 255.791 72.8059 255.249 72.7533C254.702 72.6935 254.244 72.7582 253.874 72.9476L254.335 71.509C254.671 71.3789 255.092 71.3169 255.597 71.3228C256.102 71.3287 256.638 71.4197 257.204 71.5958C257.759 71.7689 258.303 72.0472 258.835 72.4307C259.355 72.8112 259.805 73.3219 260.184 73.9628C260.658 74.7639 260.918 75.5595 260.962 76.3494C261.003 77.132 260.86 77.846 260.534 78.4914C260.196 79.1339 259.699 79.6491 259.044 80.0371C258.41 80.4122 257.78 80.6182 257.153 80.6551C256.518 80.6963 255.903 80.5787 255.306 80.3023C254.703 80.0301 254.123 79.6159 253.567 79.0596C253.012 78.5032 252.495 77.8209 252.016 77.0124L250.626 74.6636Z" fill="white"/>
<path d="M244.187 55.7112L238.71 60.1842C238.291 60.5268 237.997 60.9091 237.828 61.3312C237.647 61.752 237.608 62.1992 237.71 62.6727C237.813 63.1462 238.065 63.6288 238.467 64.1205C238.841 64.5793 239.249 64.9182 239.69 65.1372C240.126 65.3495 240.552 65.4497 240.968 65.4375C241.379 65.4188 241.732 65.289 242.027 65.0481L243.513 66.8672C243.133 67.1777 242.675 67.3872 242.141 67.4957C241.607 67.6042 241.039 67.598 240.438 67.4772C239.824 67.3552 239.218 67.1075 238.618 66.7342C238.006 66.3597 237.438 65.8512 236.913 65.2088C236.281 64.4353 235.856 63.6465 235.636 62.8424C235.411 62.0317 235.428 61.2424 235.686 60.4745C235.932 59.7053 236.451 58.9968 237.244 58.349L242.2 54.3017C242.554 54.0126 242.907 53.6753 243.259 53.2897C243.605 52.8976 243.871 52.5215 244.058 52.1614L244.216 52.0329L245.765 53.9306C245.631 54.1937 245.411 54.4933 245.106 54.8295C244.795 55.171 244.489 55.4649 244.187 55.7112ZM239.299 59.1789L240.561 58.1153L242.063 59.954C242.486 60.4719 242.906 60.8992 243.323 61.236C243.734 61.5782 244.133 61.82 244.522 61.9615C244.911 62.103 245.289 62.1441 245.655 62.0849C246.016 62.031 246.36 61.8702 246.688 61.6026C247.022 61.3295 247.265 61.0052 247.417 60.6296C247.57 60.254 247.604 59.8485 247.522 59.4131C247.428 58.9765 247.199 58.5353 246.834 58.0896C246.379 57.5324 245.86 57.1371 245.276 56.9038C244.692 56.6704 244.128 56.5684 243.584 56.5977C243.034 56.6204 242.59 56.7531 242.253 56.9958L242.494 55.5043C242.807 55.3253 243.213 55.2009 243.713 55.1311C244.214 55.0613 244.757 55.071 245.344 55.1602C245.918 55.2483 246.497 55.442 247.08 55.7415C247.652 56.0397 248.173 56.4773 248.644 57.0541C249.233 57.7752 249.609 58.5229 249.771 59.2972C249.928 60.0649 249.894 60.7923 249.668 61.4793C249.431 62.1651 249.017 62.7489 248.427 63.2307C247.857 63.6965 247.264 63.9946 246.65 64.125C246.028 64.2608 245.402 64.2368 244.771 64.0528C244.134 63.8742 243.498 63.5515 242.866 63.0846C242.233 62.6178 241.62 62.0206 241.026 61.2929L239.299 59.1789Z" fill="white"/>
<path d="M230.094 41.405L225.349 46.648C224.985 47.0496 224.752 47.4717 224.648 47.9143C224.532 48.3575 224.561 48.8054 224.733 49.2582C224.905 49.711 225.227 50.1504 225.697 50.5763C226.137 50.9739 226.591 51.2478 227.06 51.3982C227.522 51.5429 227.958 51.5781 228.368 51.5038C228.772 51.4237 229.101 51.2425 229.357 50.9601L231.098 52.5361C230.769 52.9001 230.348 53.1757 229.836 53.363C229.324 53.5503 228.762 53.6293 228.149 53.5999C227.525 53.5711 226.888 53.4171 226.239 53.1379C225.578 52.8593 224.94 52.4417 224.325 51.8851C223.584 51.215 223.045 50.4989 222.708 49.7367C222.364 48.9689 222.262 48.186 222.402 47.3881C222.53 46.5908 222.937 45.8125 223.624 45.0532L227.918 40.3091C228.225 39.9702 228.523 39.5838 228.813 39.1499C229.097 38.7104 229.304 38.2986 229.434 37.9145L229.571 37.7639L231.387 39.4081C231.293 39.6884 231.121 40.0175 230.87 40.3956C230.614 40.7799 230.355 41.1163 230.094 41.405ZM225.78 45.5658L226.869 44.3251L228.629 45.9181C229.125 46.3668 229.604 46.7264 230.067 46.9969C230.524 47.2737 230.956 47.453 231.361 47.5346C231.767 47.6162 232.146 47.6003 232.5 47.4868C232.848 47.3795 233.164 47.169 233.448 46.8553C233.738 46.5352 233.93 46.1781 234.024 45.784C234.118 45.3898 234.092 44.9836 233.945 44.5655C233.787 44.148 233.494 43.7461 233.067 43.3599C232.534 42.8772 231.961 42.5642 231.349 42.421C230.736 42.2777 230.163 42.2614 229.63 42.3719C229.09 42.4767 228.671 42.6743 228.374 42.9648L228.388 41.4541C228.671 41.2303 229.054 41.0464 229.538 40.9024C230.023 40.7584 230.561 40.6866 231.154 40.687C231.736 40.688 232.337 40.7928 232.959 41.0015C233.568 41.2108 234.149 41.5653 234.702 42.0651C235.392 42.6898 235.875 43.3727 236.152 44.1139C236.422 44.8495 236.497 45.5737 236.377 46.2868C236.245 47.0005 235.923 47.6397 235.412 48.2044C234.918 48.7504 234.377 49.1339 233.789 49.355C233.195 49.5823 232.572 49.6523 231.921 49.565C231.264 49.4839 230.587 49.2599 229.892 48.8932C229.196 48.5264 228.501 48.0278 227.804 47.3974L225.78 45.5658Z" fill="white"/>
<path d="M214.016 29.3715L210.11 35.2661C209.811 35.7177 209.643 36.17 209.607 36.6231C209.559 37.0787 209.654 37.5174 209.892 37.9392C210.13 38.3611 210.514 38.7473 211.043 39.0979C211.537 39.4252 212.027 39.628 212.513 39.7065C212.992 39.7803 213.429 39.7497 213.823 39.6148C214.21 39.4752 214.508 39.2467 214.719 38.9292L216.677 40.2265C216.406 40.6357 216.031 40.9713 215.553 41.2332C215.075 41.4951 214.53 41.6574 213.92 41.7201C213.298 41.7852 212.646 41.7284 211.962 41.5496C211.267 41.3731 210.573 41.0558 209.882 40.5977C209.05 40.046 208.409 39.4187 207.961 38.7157C207.506 38.0081 207.288 37.2493 207.307 36.4395C207.314 35.6319 207.601 34.8013 208.166 33.9477L211.701 28.6139C211.953 28.2329 212.19 27.8062 212.412 27.3338C212.626 26.8567 212.77 26.4185 212.841 26.0192L212.953 25.8499L214.996 27.2033C214.945 27.4945 214.824 27.8458 214.633 28.2571C214.437 28.6755 214.231 29.047 214.016 29.3715ZM210.375 34.1316L211.265 32.7418L213.244 34.0531C213.801 34.4225 214.329 34.7062 214.827 34.9043C215.321 35.1095 215.774 35.2221 216.187 35.2421C216.601 35.262 216.974 35.1894 217.306 35.0241C217.635 34.866 217.916 34.6105 218.149 34.2577C218.388 33.8979 218.524 33.5161 218.558 33.1122C218.592 32.7084 218.505 32.3107 218.298 31.9193C218.078 31.5303 217.729 31.1768 217.249 30.8589C216.649 30.4615 216.036 30.2379 215.409 30.188C214.782 30.1381 214.213 30.2078 213.702 30.397C213.184 30.5816 212.8 30.8397 212.549 31.1713L212.337 29.6755C212.583 29.4119 212.935 29.1727 213.392 28.9578C213.849 28.7429 214.371 28.5912 214.957 28.5027C215.532 28.4166 216.142 28.4301 216.788 28.5433C217.422 28.6589 218.05 28.9224 218.671 29.3338C219.447 29.8481 220.027 30.4509 220.412 31.1423C220.789 31.829 220.972 32.5339 220.96 33.2569C220.936 33.9823 220.714 34.6625 220.293 35.2975C219.886 35.9113 219.409 36.3715 218.86 36.6782C218.307 36.992 217.702 37.1545 217.045 37.1657C216.383 37.184 215.681 37.0639 214.938 36.8054C214.196 36.5469 213.433 36.1582 212.65 35.6393L210.375 34.1316Z" fill="white"/>
<path d="M196.317 19.8826L193.338 26.2958C193.11 26.7871 193.012 27.2595 193.044 27.7129C193.065 28.1705 193.225 28.59 193.523 28.9714C193.822 29.3528 194.259 29.6772 194.835 29.9446C195.372 30.1942 195.887 30.3213 196.38 30.3261C196.864 30.3272 197.291 30.2316 197.661 30.0392C198.022 29.8432 198.283 29.5726 198.444 29.2271L200.574 30.2165C200.367 30.6617 200.047 31.0496 199.613 31.3802C199.18 31.7107 198.666 31.9527 198.072 32.1062C197.467 32.2637 196.813 32.3053 196.111 32.2309C195.397 32.1606 194.664 31.9508 193.912 31.6014C193.006 31.1806 192.279 30.6563 191.731 30.0284C191.175 29.3969 190.845 28.6794 190.743 27.8758C190.629 27.0764 190.788 26.2122 191.219 25.2834L193.914 19.4804C194.107 19.0659 194.277 18.6085 194.426 18.1082C194.566 17.6043 194.642 17.1496 194.653 16.7441L194.739 16.5599L196.961 17.5921C196.954 17.8876 196.887 18.2531 196.76 18.6884C196.629 19.1314 196.481 19.5295 196.317 19.8826ZM193.43 25.1345L194.102 23.627L196.255 24.6271C196.861 24.9087 197.426 25.1102 197.948 25.2314C198.467 25.3604 198.932 25.4038 199.343 25.3616C199.755 25.3195 200.113 25.1917 200.417 24.9785C200.718 24.7729 200.958 24.4782 201.136 24.0944C201.318 23.703 201.395 23.305 201.368 22.9006C201.342 22.4963 201.196 22.1161 200.932 21.7602C200.657 21.4084 200.258 21.1113 199.736 20.8689C199.084 20.5658 198.444 20.4366 197.817 20.4812C197.19 20.5258 196.637 20.6799 196.16 20.9436C195.676 21.2037 195.334 21.5164 195.137 21.8818L194.703 20.4346C194.906 20.1372 195.218 19.848 195.638 19.567C196.058 19.2861 196.551 19.0579 197.118 18.8826C197.673 18.7113 198.279 18.6333 198.934 18.6484C199.578 18.6677 200.238 18.8342 200.914 19.148C201.758 19.5402 202.422 20.0493 202.906 20.6752C203.382 21.2977 203.668 21.9672 203.765 22.6839C203.85 23.4047 203.732 24.1105 203.411 24.8013C203.101 25.4691 202.698 25.9957 202.201 26.3811C201.702 26.7742 201.128 27.0255 200.479 27.1351C199.828 27.2523 199.115 27.2388 198.343 27.0944C197.57 26.9501 196.757 26.6801 195.905 26.2843L193.43 25.1345Z" fill="white"/>
</svg>
