<svg width="884" height="884" viewBox="0 0 884 884" fill="none" xmlns="http://www.w3.org/2000/svg">
<path fill-rule="evenodd" clip-rule="evenodd" d="M809.239 0.23205C767.476 6.36905 713.47 30.8231 669.764 63.3871C660.65 70.1781 646.487 83.68 602.053 127.94L545.867 183.905L485.553 179.748C452.38 177.462 424.724 175.598 424.094 175.606C423.334 175.616 423.643 173.52 425.015 169.371C428.139 159.919 428.074 140.249 424.893 132.663C413.552 105.616 381.982 97.6031 350.452 113.769C342.978 117.602 340.016 120.183 317.532 142.464L292.825 166.947L268.032 165.279C254.396 164.362 226.139 162.491 205.239 161.121C184.339 159.751 146.989 157.299 122.239 155.671C97.4893 154.044 74.5633 152.605 71.2933 152.475L65.3463 152.238L56.2933 161.858C51.3133 167.149 37.3863 181.645 25.3443 194.071C13.3023 206.497 3.65334 216.868 3.90334 217.118C4.30834 217.523 36.9853 229.693 95.2393 251.133C106.239 255.182 149.439 271.153 191.239 286.624C233.039 302.096 276.239 318.066 287.239 322.114C298.239 326.161 318.939 333.818 333.239 339.129C347.539 344.441 362.389 349.927 366.239 351.321C370.089 352.715 373.445 354.046 373.696 354.279C373.948 354.512 331.649 397.209 279.698 449.162L185.243 543.621H129.189H73.1343L35.9763 580.853C12.9533 603.923 -0.720662 618.331 0.0293379 618.729C0.694338 619.083 13.3893 622.337 28.2393 625.96C43.0893 629.583 80.8893 638.822 112.239 646.491C143.589 654.16 178.794 662.765 190.473 665.613L211.708 670.791L212.693 674.456C213.236 676.472 215.917 687.346 218.651 698.621C223.798 719.842 235.014 765.663 253.373 840.463L264.01 883.805L271.624 876.395C275.812 872.32 292.626 855.773 308.989 839.625L338.739 810.264V753.19V696.117L433.198 601.662C485.151 549.711 527.918 507.467 528.237 507.785C528.74 508.288 559.523 590.919 561.704 597.621C562.407 599.782 571.947 625.656 607.24 721.121C611.306 732.121 616.87 747.196 619.603 754.621C634.837 796.005 664.118 875.453 664.875 877.46C665.698 879.642 667.615 877.993 693.498 852.842C708.756 838.016 723.409 823.927 726.061 821.534L730.882 817.183L730.286 809.152C729.958 804.735 729.027 790.771 728.216 778.121C727.406 765.471 726.528 752.196 726.265 748.621C726.002 745.046 725.542 738.296 725.243 733.621C724.943 728.946 723.816 711.621 722.736 695.121C721.657 678.621 720.094 654.546 719.263 641.621C717.399 612.627 716.857 604.871 716.129 596.772L715.559 590.422L739.947 565.772C765.755 539.686 768.684 535.815 773.748 521.095C782.704 495.063 774.195 469.281 753.443 459.57C740.23 453.387 727.345 453.299 708.643 459.265C707.264 459.704 706.957 458.099 706.38 447.447C706.012 440.668 705.047 425.896 704.234 414.621C703.422 403.346 701.842 381.088 700.723 365.158L698.688 336.195L755.573 279.158C789.15 245.491 814.903 218.843 818.425 214.121C852.798 168.037 879.184 108.219 882.607 68.621C885.659 33.31 874.086 11.3421 847.983 2.90005C841.531 0.81305 837.903 0.34505 826.239 0.0930503C818.539 -0.0729497 810.889 -0.0109498 809.239 0.23205Z" fill="url(#paint0_linear_10_5)"/>
<defs>
<linearGradient id="paint0_linear_10_5" x1="883" y1="5.64524e-05" x2="-3.26424e-05" y2="884" gradientUnits="userSpaceOnUse">
<stop stop-color="white"/>
<stop offset="1" stop-color="white" stop-opacity="0"/>
</linearGradient>
</defs>
</svg>
