<svg width="12" height="11" viewBox="0 0 12 11" fill="none" xmlns="http://www.w3.org/2000/svg">
<path fill-rule="evenodd" clip-rule="evenodd" d="M10.8815 0.154642C10.9025 0.172915 10.9221 0.192615 10.9403 0.213589C10.9778 0.256835 11.0082 0.304176 11.0313 0.354039C11.0669 0.430793 11.0869 0.516349 11.0869 0.606555V9.27204C11.0869 9.60341 10.8182 9.87204 10.4869 9.87204C10.1555 9.87204 9.88685 9.60341 9.88685 9.27204V2.05506L1.12426 10.8177C0.88995 11.052 0.51005 11.052 0.275736 10.8177C0.0414213 10.5833 0.0414213 10.2034 0.275736 9.96912L9.0383 1.20656H1.82137C1.49 1.20656 1.22137 0.937926 1.22137 0.606555C1.22137 0.275184 1.49 0.00655514 1.82137 0.00655514H10.4867C10.4867 0.00655514 10.4868 0.00655514 10.4869 0.00655514C10.5721 0.00655514 10.6532 0.0243287 10.7266 0.0563719C10.7818 0.0804211 10.8342 0.113178 10.8815 0.154642Z" fill="white" fill-opacity="0.8"/>
</svg>
