<svg width="47" height="32" viewBox="0 0 47 32" fill="none" xmlns="http://www.w3.org/2000/svg">
<path fill-rule="evenodd" clip-rule="evenodd" d="M18.6455 0.0906942C11.1741 0.870895 5.21241 6.89772 4.44796 14.4432C4.34257 15.4832 4.32482 16.6647 4.40983 16.9817C4.4576 17.1599 4.52458 17.1865 4.92574 17.1865C5.17929 17.1865 5.74225 17.1409 6.17681 17.0852L6.96684 16.9838L7.01871 15.5153C7.0796 13.7934 7.30848 12.6628 7.90512 11.1368C8.3445 10.0129 8.44424 10.0142 8.44643 11.1435C8.44716 11.549 8.47464 12.198 8.5074 12.586L8.56701 13.2913L9.68339 14.0331C10.6725 14.6903 10.8395 14.8396 11.1481 15.3434C11.3398 15.6561 11.517 15.9091 11.542 15.9056C11.567 15.9021 12.1813 15.7066 12.9071 15.4713L14.2267 15.0433L14.2722 14.5909L14.3177 14.1385L15.2278 13.9929C16.2152 13.8348 17.2661 13.4837 17.5791 13.2071C17.6874 13.1116 18.3493 12.5274 19.0501 11.9092C19.7508 11.2909 20.3972 10.7179 20.4863 10.6359C20.6404 10.4941 20.6258 10.4568 20.1905 9.88183C19.9387 9.54911 19.7326 9.23341 19.7326 9.18026C19.7326 9.12711 19.9377 8.6749 20.1884 8.17546L20.6441 7.2673L20.1093 6.88198C19.5396 6.47154 19.5175 6.42731 18.9454 4.54738L18.8241 4.14868L19.5741 3.37649L20.3242 2.6043L21.2797 2.6539C22.0941 2.69622 23.9716 3.01802 24.0948 3.13642C24.1163 3.15717 23.9988 3.3137 23.8336 3.48415C23.6421 3.68173 23.508 3.93136 23.4639 4.17244C23.3997 4.52317 23.4194 4.57924 23.7338 4.94253C24.0449 5.30192 24.0863 5.41695 24.2335 6.33212L24.3941 7.32991L25.2603 7.89452C26.39 8.63085 26.5486 8.66171 26.9357 8.22087C27.3521 7.74654 28.1466 7.17711 28.6687 6.97881C29.2916 6.7421 30.0638 6.76258 30.7878 7.03514C31.1144 7.15809 31.3815 7.23927 31.3815 7.2157C31.3815 7.19213 30.8273 6.49911 30.1501 5.67568C28.765 3.99161 28.4715 3.47259 28.4702 2.70468L28.4693 2.1924L27.4454 1.68859C24.6195 0.298007 21.7134 -0.22974 18.6455 0.0906942ZM31.348 1.90828C30.9952 2.18057 30.7444 2.44313 30.7444 2.54005C30.7444 2.63124 31.8549 4.06177 33.2121 5.71909C34.5693 7.37633 35.6648 8.74379 35.6465 8.7579C35.4766 8.88886 32.952 10.2945 32.8822 10.297C32.8317 10.2988 32.1267 10.0477 31.3157 9.73913C30.5046 9.43044 29.7452 9.1779 29.6281 9.1779C29.3529 9.1779 28.6513 9.69318 28.6513 9.89539C28.6513 9.98094 28.8186 10.2129 29.0231 10.4108C29.2277 10.6086 29.8065 11.2118 30.3095 11.7511L31.224 12.7318L31.351 14.5268C31.447 15.8843 31.5104 16.3465 31.6113 16.4227C31.7877 16.5559 32.5995 16.399 32.7796 16.1969C32.8522 16.1155 33.175 15.3549 33.4968 14.5067L34.0822 12.9645L35.5587 12.4723C36.3708 12.2016 37.0607 12.0056 37.0917 12.0366C37.1228 12.0676 37.4197 13.7726 37.7515 15.8253C38.1683 18.4042 38.3978 19.6004 38.494 19.6967C38.6135 19.8162 38.7226 19.8209 39.2619 19.7302C40.0271 19.6015 40.2558 19.4677 40.3765 19.0781C40.4275 18.9136 40.8279 16.7891 41.2663 14.3569L42.0634 9.93462L42.9705 9.44309C44.2699 8.73897 45.1808 8.11603 45.7696 7.52922C46.8016 6.50039 46.8098 5.55446 45.7892 5.27107C44.9545 5.03927 43.7548 5.22229 41.8928 5.86543C41.2421 6.09022 40.6482 6.2938 40.5732 6.31774C40.4979 6.34176 38.6215 5.25787 36.3907 3.90178C34.1654 2.54906 32.2562 1.44233 32.1481 1.44233C32.04 1.44233 31.6799 1.65201 31.348 1.90828ZM44.5092 6.35787C44.8717 6.75575 44.8619 7.31654 44.4865 7.67628L44.2134 7.93784L44.2129 7.67055C44.212 7.19286 44.0367 6.75411 43.7141 6.42185C43.4478 6.14765 43.4228 6.08931 43.5554 6.05181C43.8715 5.96263 44.2637 6.0884 44.5092 6.35787ZM25.8301 12.6029C20.4358 15.3086 13.1012 17.9871 8.5661 18.9074C6.62202 19.302 5.7549 19.3955 4.40491 19.356C3.29536 19.3236 3.16831 19.3013 2.66541 19.0501C2.32732 18.8813 2.04229 18.6591 1.90923 18.4606C1.46658 17.8004 1.79502 16.5239 2.80356 14.9849L3.17978 14.4108L2.47921 15.1388C0.748898 16.9369 -0.156346 18.6372 0.0222094 19.754C0.32963 21.6768 2.75696 22.5766 7.25588 22.4357C12.299 22.2776 18.813 20.7165 25.3942 18.0889C26.9876 17.4527 29.0264 16.5629 29.1438 16.4524C29.1938 16.4055 29.188 15.8245 29.1293 14.993L29.0318 13.6116L28.1835 12.7598C27.717 12.2914 27.2936 11.9155 27.2425 11.9246C27.1914 11.9336 26.5559 12.2389 25.8301 12.6029ZM35.1276 16.7707C34.9673 17.1176 34.7321 17.538 34.6048 17.7049C33.8917 18.6397 31.6632 19.1345 30.6159 18.5904L30.2599 18.4055L28.6593 19.1017C27.779 19.4846 26.987 19.8233 26.8994 19.8544C26.7798 19.8969 26.7401 20.0126 26.7401 20.3191C26.7401 20.7131 26.763 20.7469 27.3999 21.2925C27.7629 21.6034 28.0714 21.886 28.0856 21.9205C28.0999 21.9549 27.8444 22.233 27.518 22.5384L26.9243 23.0936L27.2977 24.6537C27.6124 25.9681 27.7145 26.263 27.9458 26.5265C28.0969 26.6986 28.2048 26.8536 28.1856 26.8711C27.9579 27.0785 26.6287 27.8497 25.9793 28.1512C24.3038 28.9287 22.8854 29.2731 21.0295 29.3525C20.3162 29.3831 19.7326 29.3889 19.7326 29.3655C19.7326 29.3422 20.0026 29.1067 20.3325 28.8424L20.9323 28.3617L20.8713 27.7539L20.8102 27.1463L21.7715 26.694L22.7328 26.2417L22.9992 25.4067C23.1798 24.8408 23.3886 24.4088 23.6476 24.066L24.0294 23.5601L23.8604 23.0887L23.6914 22.6172L22.7515 22.1781L21.8116 21.739L20.3398 22.1884C19.0797 22.5732 18.3188 22.7819 15.9621 23.3896L15.6044 23.4819L16.2351 24.0543L16.8659 24.6268L16.4886 25.0753L16.1113 25.5238L16.3699 26.9944C16.5122 27.8031 16.6751 28.5518 16.7319 28.658C16.7886 28.7641 16.8207 28.8654 16.803 28.883C16.7435 28.9426 15.4156 28.4605 14.6413 28.0981C13.395 27.5149 12.1446 26.6226 10.9995 25.4995L9.95659 24.4764L8.47409 24.5811C7.65876 24.6386 6.99169 24.7148 6.99169 24.7505C6.99169 24.7861 7.24232 25.1567 7.54874 25.5739C8.29636 26.5923 10.0274 28.2859 11.0883 29.037C14.1414 31.1985 17.9429 32.2538 21.5752 31.9481C23.7492 31.7652 25.4429 31.3054 27.3317 30.3855C30.4983 28.8431 32.9656 26.417 34.5718 23.2666C35.144 22.1444 35.8075 20.3133 35.8883 19.6336C35.9164 19.3969 35.8305 18.6037 35.6774 17.687L35.4189 16.1399L35.1276 16.7707Z" fill="white"/>
</svg>
