<svg width="145" height="16" viewBox="0 0 145 16" fill="none" xmlns="http://www.w3.org/2000/svg">
<path d="M10.3672 7.1582V8.18359H1.72461V7.1582H10.3672ZM2.00781 0.78125V15H0.806641V0.78125H2.00781ZM11.334 0.78125V15H10.1328V0.78125H11.334ZM17.8316 0.78125V15H16.6305V0.78125H17.8316ZM27.9426 1.63086L23.0207 15H21.7707L27.1418 0.78125H28.0109L27.9426 1.63086ZM32.4152 15L27.4836 1.63086L27.4152 0.78125H28.2844L33.6652 15H32.4152ZM31.5363 9.98047V11.0156H23.9875V9.98047H31.5363ZM47.3113 8.24219V13.3008C47.1486 13.5417 46.8686 13.8086 46.4715 14.1016C46.0743 14.3945 45.5405 14.6517 44.8699 14.873C44.1993 15.0879 43.366 15.1953 42.3699 15.1953C41.5366 15.1953 40.7716 15.0456 40.075 14.7461C39.3784 14.4466 38.7729 14.0137 38.2586 13.4473C37.7508 12.8743 37.3569 12.1875 37.077 11.3867C36.8035 10.5859 36.6668 9.6875 36.6668 8.69141V6.97266C36.6668 5.99609 36.7938 5.11719 37.0477 4.33594C37.3016 3.54818 37.6694 2.87435 38.1512 2.31445C38.6329 1.75456 39.2124 1.32812 39.8895 1.03516C40.573 0.735677 41.338 0.585938 42.1844 0.585938C43.2391 0.585938 44.1277 0.768229 44.8504 1.13281C45.573 1.4974 46.1362 1.9987 46.5398 2.63672C46.95 3.26823 47.2039 3.98438 47.3016 4.78516H46.1004C46.0092 4.21875 45.8204 3.69792 45.534 3.22266C45.2475 2.74089 44.8309 2.35352 44.284 2.06055C43.7436 1.76758 43.0438 1.62109 42.1844 1.62109C41.4943 1.62109 40.879 1.74805 40.3387 2.00195C39.8048 2.25586 39.3556 2.61719 38.991 3.08594C38.6264 3.55469 38.3497 4.11784 38.1609 4.77539C37.9721 5.42643 37.8777 6.15234 37.8777 6.95312V8.69141C37.8777 9.52474 37.9819 10.2767 38.1902 10.9473C38.4051 11.6178 38.7111 12.194 39.1082 12.6758C39.5053 13.1576 39.9806 13.5286 40.534 13.7891C41.0874 14.043 41.7026 14.1699 42.3797 14.1699C43.1023 14.1699 43.7176 14.1016 44.2254 13.9648C44.7332 13.8281 45.1401 13.6654 45.4461 13.4766C45.7586 13.2812 45.9832 13.099 46.1199 12.9297V9.26758H42.3016V8.24219H47.3113ZM62.6469 7.12891V8.65234C62.6469 9.64844 62.5167 10.5501 62.2562 11.3574C62.0023 12.1582 61.6312 12.8451 61.143 13.418C60.6612 13.9909 60.0818 14.4303 59.4047 14.7363C58.7276 15.0423 57.9659 15.1953 57.1195 15.1953C56.2927 15.1953 55.5375 15.0423 54.8539 14.7363C54.1768 14.4303 53.5941 13.9909 53.1059 13.418C52.6176 12.8451 52.24 12.1582 51.973 11.3574C51.7061 10.5501 51.5727 9.64844 51.5727 8.65234V7.12891C51.5727 6.13281 51.7029 5.23438 51.9633 4.43359C52.2302 3.6263 52.6078 2.9362 53.0961 2.36328C53.5844 1.79036 54.1671 1.35091 54.8441 1.04492C55.5212 0.738932 56.2732 0.585938 57.1 0.585938C57.9464 0.585938 58.7081 0.738932 59.3852 1.04492C60.0622 1.35091 60.6449 1.79036 61.1332 2.36328C61.6215 2.9362 61.9958 3.6263 62.2562 4.43359C62.5167 5.23438 62.6469 6.13281 62.6469 7.12891ZM61.4555 8.65234V7.10938C61.4555 6.26953 61.3578 5.51432 61.1625 4.84375C60.9737 4.17318 60.6905 3.60026 60.3129 3.125C59.9418 2.64974 59.4861 2.28516 58.9457 2.03125C58.4053 1.77734 57.7901 1.65039 57.1 1.65039C56.4294 1.65039 55.8272 1.77734 55.2934 2.03125C54.7595 2.28516 54.3038 2.64974 53.9262 3.125C53.5551 3.60026 53.2686 4.17318 53.0668 4.84375C52.8715 5.51432 52.7738 6.26953 52.7738 7.10938V8.65234C52.7738 9.4987 52.8715 10.2604 53.0668 10.9375C53.2686 11.6081 53.5583 12.1842 53.9359 12.666C54.3135 13.1413 54.7693 13.5059 55.3031 13.7598C55.8435 14.0137 56.449 14.1406 57.1195 14.1406C57.8161 14.1406 58.4314 14.0137 58.9652 13.7598C59.4991 13.5059 59.9516 13.1413 60.3227 12.666C60.6937 12.1842 60.9737 11.6081 61.1625 10.9375C61.3578 10.2604 61.4555 9.4987 61.4555 8.65234ZM72.1133 8.75977H68.4609L68.4414 6.74805H71.5078C72.0482 6.74805 72.4909 6.67969 72.8359 6.54297C73.181 6.39974 73.4382 6.19466 73.6074 5.92773C73.7832 5.6543 73.8711 5.32227 73.8711 4.93164C73.8711 4.48893 73.7865 4.13086 73.6172 3.85742C73.4544 3.58398 73.1973 3.38542 72.8457 3.26172C72.5007 3.13802 72.0547 3.07617 71.5078 3.07617H69.4766V15H66.5469V0.78125H71.5078C72.3346 0.78125 73.0736 0.859375 73.7246 1.01562C74.3822 1.17188 74.9388 1.40951 75.3945 1.72852C75.8503 2.04753 76.1986 2.45117 76.4395 2.93945C76.6803 3.42122 76.8008 3.99414 76.8008 4.6582C76.8008 5.24414 76.6673 5.78451 76.4004 6.2793C76.14 6.77409 75.7266 7.17773 75.1602 7.49023C74.6003 7.80273 73.8678 7.97526 72.9629 8.00781L72.1133 8.75977ZM71.9863 15H67.6602L68.8027 12.7148H71.9863C72.5007 12.7148 72.9206 12.6335 73.2461 12.4707C73.5716 12.3014 73.8125 12.0736 73.9688 11.7871C74.125 11.5007 74.2031 11.1719 74.2031 10.8008C74.2031 10.3841 74.1315 10.0228 73.9883 9.7168C73.8516 9.41081 73.6302 9.17643 73.3242 9.01367C73.0182 8.8444 72.6146 8.75977 72.1133 8.75977H69.291L69.3105 6.74805H72.8262L73.5 7.53906C74.3659 7.52604 75.0625 7.67904 75.5898 7.99805C76.1237 8.31055 76.5111 8.71745 76.752 9.21875C76.9993 9.72005 77.123 10.2572 77.123 10.8301C77.123 11.7415 76.9245 12.5098 76.5273 13.1348C76.1302 13.7533 75.5475 14.2188 74.7793 14.5312C74.0176 14.8438 73.0866 15 71.9863 15ZM88.8613 12.7148V15H81.293V12.7148H88.8613ZM82.25 0.78125V15H79.3203V0.78125H82.25ZM87.875 6.57227V8.79883H81.293V6.57227H87.875ZM88.8516 0.78125V3.07617H81.293V0.78125H88.8516ZM102.143 0.78125V15H99.2129L93.5 5.46875V15H90.5703V0.78125H93.5L99.2227 10.3223V0.78125H102.143ZM107.807 0.78125V15H104.887V0.78125H107.807ZM116.615 0.78125V15H113.695V0.78125H116.615ZM120.99 0.78125V3.07617H109.389V0.78125H120.99ZM132.201 12.7148V15H124.633V12.7148H132.201ZM125.59 0.78125V15H122.66V0.78125H125.59ZM131.215 6.57227V8.79883H124.633V6.57227H131.215ZM132.191 0.78125V3.07617H124.633V0.78125H132.191ZM144.193 12.7148V15H134.115V12.7148H144.193ZM144.047 2.41211L135.414 15H133.354V13.3203L142.055 0.78125H144.047V2.41211ZM143.041 0.78125V3.07617H133.363V0.78125H143.041Z" fill="white"/>
</svg>
